<svg version="1.1" xmlns="http://www.w3.org/2000/svg" viewBox="0 0 1749.1039633986031 1799.9999999999993" width="1749.1039633986031" height="1799.9999999999993">
  <!-- svg-source:excalidraw -->
  
  <defs>
    <style class="style-fonts">
      @font-face {
        font-family: "Virgil";
        src: url("https://excalidraw.com/Virgil.woff2");
      }
      @font-face {
        font-family: "Cascadia";
        src: url("https://excalidraw.com/Cascadia.woff2");
      }
    </style>
  </defs>
  <g stroke-linecap="round" transform="translate(1380.5325348271747 829.4285714285713) rotate(0 179.28571428571422 391.42857142857133)"><path d="M31.44 -1.77 L324.71 0.67 L334.26 0.37 L345.75 3.96 L351.29 7.84 L356.97 16.22 L360.27 30.66 L359.05 751.04 L356.41 757.15 L355.71 769.93 L348.94 773.55 L341.71 780.42 L326.63 781.64 L33.74 781.15 L22.7 781.78 L14.27 777.26 L2.61 769.34 L3.07 764.32 L1.67 750.64 L-0.99 31.04 L3.25 16.1 L8.5 7.64 L19.78 0.21 L33.97 0.27" stroke="none" stroke-width="0" fill="#b2f2bb"></path><path d="M32 0 M32 0 C100.62 -1.5, 171.36 -1.32, 326.57 0 M32 0 C97.83 -1.17, 161.87 -1.26, 326.57 0 M326.57 0 C347.94 0.82, 358.69 11.01, 358.57 32 M326.57 0 C347.42 0.44, 357.94 9.32, 358.57 32 M358.57 32 C356.09 242.67, 356.18 454.1, 358.57 750.86 M358.57 32 C356.7 246.09, 357.16 459.64, 358.57 750.86 M358.57 750.86 C360.45 772.05, 348.72 781.94, 326.57 782.86 M358.57 750.86 C358.12 774.14, 346.64 783.52, 326.57 782.86 M326.57 782.86 C257.42 785.56, 184.86 785.7, 32 782.86 M326.57 782.86 C242.33 784.76, 159.49 784.94, 32 782.86 M32 782.86 C11.64 783.16, -1.59 772.34, 0 750.86 M32 782.86 C9.67 781.54, 0.97 774.29, 0 750.86 M0 750.86 C2.34 571.12, 2.81 393.29, 0 32 M0 750.86 C-2.08 531.62, -2.2 312.67, 0 32 M0 32 C1.15 12.56, 8.97 1.59, 32 0 M0 32 C-1.23 9.91, 12.1 0.8, 32 0" stroke="#000000" stroke-width="4" fill="none"></path></g><g stroke-linecap="round" transform="translate(937.5801538747933 192.85714285714266) rotate(0 179.28571428571422 796.4285714285713)"><path d="M31.61 0.58 L333.95 0.16 L339.66 1.87 L349.09 7.38 L353.91 12.19 L359.19 23.11 L357.52 1562 L358.57 1568.81 L355.58 1581.19 L344.54 1586.92 L332.63 1593.28 L24.3 1591.46 L19.09 1589.97 L6.25 1583.63 L2.59 1578.96 L-0.99 1567.16 L-1.49 30.16 L0.28 16.98 L9.26 6.05 L16.19 1.57 L33.21 -1.91" stroke="none" stroke-width="0" fill="#ffc9c9"></path><path d="M32 0 M32 0 C118.23 0.77, 206.42 0.94, 326.57 0 M32 0 C112.92 -0.87, 194.87 -1.4, 326.57 0 M326.57 0 C349.63 -0.41, 357.09 11.2, 358.57 32 M326.57 0 C350.09 1.33, 357.66 10.29, 358.57 32 M358.57 32 C358.36 484.25, 358.42 937.89, 358.57 1560.86 M358.57 32 C358.83 385.84, 359.41 740.48, 358.57 1560.86 M358.57 1560.86 C357.52 1580.32, 347.31 1591.12, 326.57 1592.86 M358.57 1560.86 C356.72 1583.27, 347.96 1592.27, 326.57 1592.86 M326.57 1592.86 C217.14 1591.5, 110.63 1592.18, 32 1592.86 M326.57 1592.86 C213.85 1592.59, 101.21 1591.66, 32 1592.86 M32 1592.86 C9.65 1591.41, 1.47 1582.5, 0 1560.86 M32 1592.86 C11.76 1593.94, 2.21 1580.25, 0 1560.86 M0 1560.86 C4.78 1226.56, 4.73 891.95, 0 32 M0 1560.86 C3.55 1214.04, 3.34 867.65, 0 32 M0 32 C1.98 11.62, 9.12 -0.15, 32 0 M0 32 C-2.19 12.05, 9.86 -1.28, 32 0" stroke="#000000" stroke-width="4" fill="none"></path></g><g stroke-linecap="round" transform="translate(103.29443958907927 10) rotate(0 351.42857142857144 889.9999999999997)"><path d="M30.61 0.25 L669.76 -0.59 L677.02 1.68 L690.08 3.53 L693.42 7.56 L699.17 17.38 L701.72 32.06 L703.78 1749.11 L702.43 1754.37 L697.17 1766.94 L695.52 1773.69 L683.04 1776.1 L669.93 1781.78 L30.22 1779.35 L24.23 1781.41 L13.56 1777.49 L3.52 1767.92 L3.84 1761.34 L-0.72 1749.12 L-1.36 33.27 L0.84 17.4 L6.5 8.17 L19.99 2.17 L31.47 0.95" stroke="none" stroke-width="0" fill="#ffec99"></path><path d="M32 0 M32 0 C254.68 -1.44, 478.27 -0.81, 670.86 0 M32 0 C176.29 1.1, 320.94 0.71, 670.86 0 M670.86 0 C690.86 -0.03, 702.36 10.85, 702.86 32 M670.86 0 C691.47 -1.6, 703.44 11.4, 702.86 32 M702.86 32 C702.53 517.67, 702.3 1004.98, 702.86 1748 M702.86 32 C706.97 700.59, 706.74 1369.42, 702.86 1748 M702.86 1748 C701.03 1767.99, 693.5 1779.12, 670.86 1780 M702.86 1748 C703.97 1767.58, 691.01 1779.32, 670.86 1780 M670.86 1780 C466.14 1782.14, 262.69 1781.92, 32 1780 M670.86 1780 C448.32 1779, 226.36 1779.21, 32 1780 M32 1780 C8.77 1779.31, -0.5 1770, 0 1748 M32 1780 C8.78 1781.26, 1.92 1769.38, 0 1748 M0 1748 C0.99 1375.72, 0.83 1003.87, 0 32 M0 1748 C-0.6 1345.04, -1.32 942.3, 0 32 M0 32 C1.7 12.19, 9.89 -1.85, 32 0 M0 32 C2.06 12.25, 11.94 0.93, 32 0" stroke="#000000" stroke-width="4" fill="none"></path></g><g stroke-linecap="round" transform="translate(126.15158244622216 87.14285714285728) rotate(0 132.85714285714278 73.57142857142858)"><path d="M32 0 M32 0 C109.08 -2.27, 188.01 0.16, 233.71 0 M32 0 C90.3 2, 147.37 0.57, 233.71 0 M233.71 0 C256.14 1.71, 265.78 11.3, 265.71 32 M233.71 0 C253.62 -1.76, 265.12 8.97, 265.71 32 M265.71 32 C266.34 55.67, 266.83 79.87, 265.71 115.14 M265.71 32 C265.13 57.43, 265.03 82.39, 265.71 115.14 M265.71 115.14 C265.59 135.7, 253.91 145.67, 233.71 147.14 M265.71 115.14 C263.79 138.18, 253.92 145.86, 233.71 147.14 M233.71 147.14 C178.11 148.11, 124.5 149.59, 32 147.14 M233.71 147.14 C184.9 148.27, 136.45 149.09, 32 147.14 M32 147.14 C9.36 147.32, -1.51 135.91, 0 115.14 M32 147.14 C10.59 147.88, 2.01 135.95, 0 115.14 M0 115.14 C0.47 84.52, -1.07 58.22, 0 32 M0 115.14 C-0.72 93.43, -0.87 70.47, 0 32 M0 32 C-0.33 10.53, 9.97 1.07, 32 0 M0 32 C-0.77 12.9, 12.96 -1.65, 32 0" stroke="#000000" stroke-width="4" fill="none"></path></g><g transform="translate(146.15158244622194 141.4285714285715) rotate(0 111.2579574584961 22.5)"><text x="0" y="0" font-family="Virgil, Segoe UI Emoji" font-size="36px" fill="#000000" text-anchor="start" style="white-space: pre;" direction="ltr" dominant-baseline="text-before-edge">image upload</text></g><g stroke-linecap="round"><g transform="translate(251.10693934783467 254.28571428571456) rotate(0 -1.928484063344854 50.34772314459582)"><path d="M1.76 -0.72 C0.82 16.54, -2.48 86.81, -4.07 104.28 M-0.72 -3.59 C-2.06 12.73, -5.37 81.14, -5.62 99.66" stroke="#1971c2" stroke-width="4" fill="none"></path></g><g transform="translate(251.10693934783467 254.28571428571456) rotate(0 -1.928484063344854 50.34772314459582)"><path d="M-15.97 72.95 C-10.47 77.7, -7.41 87.79, -1.68 96.57 M-14.6 71 C-11.65 79.76, -7.55 91.82, -4.59 100.03" stroke="#1971c2" stroke-width="4" fill="none"></path></g><g transform="translate(251.10693934783467 254.28571428571456) rotate(0 -1.928484063344854 50.34772314459582)"><path d="M4.54 73.64 C2.74 78.4, -1.49 88.24, -1.68 96.57 M5.91 71.69 C1.55 80.11, -1.64 91.92, -4.59 100.03" stroke="#1971c2" stroke-width="4" fill="none"></path></g></g><mask></mask><g stroke-linecap="round" transform="translate(123.2944395890795 389.2857142857142) rotate(0 132.85714285714278 73.57142857142856)"><path d="M32 0 M32 0 C88.48 -1.04, 140.99 -2.59, 233.71 0 M32 0 C85.19 2.22, 138.83 2.25, 233.71 0 M233.71 0 C254.19 -1.28, 264.47 9.58, 265.71 32 M233.71 0 C256.64 0.43, 267.33 9.97, 265.71 32 M265.71 32 C264.18 52.62, 267.16 68.77, 265.71 115.14 M265.71 32 C266.43 54.35, 266.74 77.48, 265.71 115.14 M265.71 115.14 C264.59 135.95, 254.71 147.95, 233.71 147.14 M265.71 115.14 C266.67 136.34, 255.04 147.93, 233.71 147.14 M233.71 147.14 C164.71 148.04, 95.87 146.71, 32 147.14 M233.71 147.14 C154.23 148.08, 74.01 148.14, 32 147.14 M32 147.14 C9.16 148.04, -1.46 136.92, 0 115.14 M32 147.14 C10.3 146.97, 0.33 134.41, 0 115.14 M0 115.14 C0.37 93.39, -2.15 67.8, 0 32 M0 115.14 C0.7 85.64, 0.65 55.25, 0 32 M0 32 C1.8 10.89, 10.4 0.17, 32 0 M0 32 C2.26 10.14, 9.79 -2.3, 32 0" stroke="#000000" stroke-width="4" fill="none"></path></g><g transform="translate(151.86586816050794 444.9999999999999) rotate(0 106.64994812011719 22.5)"><text x="0" y="0" font-family="Virgil, Segoe UI Emoji" font-size="36px" fill="#000000" text-anchor="start" style="white-space: pre;" direction="ltr" dominant-baseline="text-before-edge">image resize</text></g><g transform="translate(270.4372967319366 286.42857142857144) rotate(0 50.58197784423828 17.5)"><text x="0" y="0" font-family="Virgil, Segoe UI Emoji" font-size="28px" fill="#000000" text-anchor="start" style="white-space: pre;" direction="ltr" dominant-baseline="text-before-edge">if large</text></g><g stroke-linecap="round" transform="translate(511.86586816050783 229.28571428571445) rotate(0 132.85714285714278 73.57142857142856)"><path d="M32 0 M32 0 C92.28 -2.01, 150.04 -1.19, 233.71 0 M32 0 C77.99 -1.07, 123.34 -0.66, 233.71 0 M233.71 0 C253.06 1.43, 266.2 9.62, 265.71 32 M233.71 0 C254.7 -1.01, 264.92 10.35, 265.71 32 M265.71 32 C265.56 55.31, 266.34 75.72, 265.71 115.14 M265.71 32 C266.62 61.46, 266.62 91.21, 265.71 115.14 M265.71 115.14 C267.06 136.59, 254.31 145.72, 233.71 147.14 M265.71 115.14 C266.84 134.26, 254.69 145.71, 233.71 147.14 M233.71 147.14 C178.14 143.76, 119.79 146.27, 32 147.14 M233.71 147.14 C171.73 145.15, 109.22 144.59, 32 147.14 M32 147.14 C10.22 149.12, -1.33 137.79, 0 115.14 M32 147.14 C9.97 148.63, 0.03 138.61, 0 115.14 M0 115.14 C-1.02 94.93, -0.56 74.92, 0 32 M0 115.14 C-0.65 91.85, 0.9 67.31, 0 32 M0 32 C-0.42 12.58, 12.63 0.42, 32 0 M0 32 C-0.32 8.55, 12.76 -1.91, 32 0" stroke="#000000" stroke-width="4" fill="none"></path></g><g transform="translate(536.1515824462222 280.7142857142858) rotate(0 105.5339584350586 22.5)"><text x="0" y="0" font-family="Virgil, Segoe UI Emoji" font-size="36px" fill="#000000" text-anchor="start" style="white-space: pre;" direction="ltr" dominant-baseline="text-before-edge">create deck</text></g><g stroke-linecap="round"><g transform="translate(416.15158244622216 468.57142857142856) rotate(0 47.0181051047785 -38.16687266881445)"><path d="M1.27 0.71 C16.05 -11.22, 75.58 -60.52, 90.43 -72.32 M-1.48 -1.37 C13.98 -14.15, 79.29 -64.92, 95.52 -77.04" stroke="#1971c2" stroke-width="4" fill="none"></path></g><g transform="translate(416.15158244622216 468.57142857142856) rotate(0 47.0181051047785 -38.16687266881445)"><path d="M80.38 -55.22 C86.13 -64.61, 95.17 -73.35, 97.75 -74.29 M78.94 -53.33 C84.13 -58.4, 89.28 -65.4, 94.53 -75.21" stroke="#1971c2" stroke-width="4" fill="none"></path></g><g transform="translate(416.15158244622216 468.57142857142856) rotate(0 47.0181051047785 -38.16687266881445)"><path d="M67.91 -71.52 C78.1 -75.1, 91.67 -77.93, 97.75 -74.29 M66.47 -69.62 C75.17 -70.16, 83.78 -72.63, 94.53 -75.21" stroke="#1971c2" stroke-width="4" fill="none"></path></g></g><mask></mask><g stroke-linecap="round"><g transform="translate(409.00872530336505 170) rotate(0 41.5003871454511 34.313336441064536)"><path d="M-0.22 -0.69 C13.49 11.42, 67.3 59.95, 81.76 72.15 M-3.79 -3.53 C10.8 7.73, 71.83 55.68, 86.79 67.54" stroke="#1971c2" stroke-width="4" fill="none"></path></g><g transform="translate(409.00872530336505 170) rotate(0 41.5003871454511 34.313336441064536)"><path d="M57.32 54.53 C67.35 64.06, 75.95 65.39, 87.31 67.5 M58.71 59.62 C63.18 59.7, 72.44 63.89, 87.23 67.05" stroke="#1971c2" stroke-width="4" fill="none"></path></g><g transform="translate(409.00872530336505 170) rotate(0 41.5003871454511 34.313336441064536)"><path d="M70.02 38.42 C76.41 52.47, 81.42 58.35, 87.31 67.5 M71.42 43.5 C72.63 47.36, 78.9 55.35, 87.23 67.05" stroke="#1971c2" stroke-width="4" fill="none"></path></g></g><mask></mask><g transform="translate(989.0087253033646 205.71428571428578) rotate(0 98.33395385742188 45)"><text x="0" y="0" font-family="Virgil, Segoe UI Emoji" font-size="36px" fill="#000000" text-anchor="start" style="white-space: pre;" direction="ltr" dominant-baseline="text-before-edge">server Side</text><text x="0" y="45" font-family="Virgil, Segoe UI Emoji" font-size="36px" fill="#000000" text-anchor="start" style="white-space: pre;" direction="ltr" dominant-baseline="text-before-edge"></text></g><g transform="translate(129.00872530336483 23.57142857142864) rotate(0 88.93795013427734 22.500000000000014)"><text x="0" y="0" font-family="Virgil, Segoe UI Emoji" font-size="36px" fill="#000000" text-anchor="start" style="white-space: pre;" direction="ltr" dominant-baseline="text-before-edge">client side</text></g><g stroke-linecap="round" transform="translate(983.2944395890792 276.42857142857156) rotate(0 142.142857142857 73.57142857142856)"><path d="M32 0 M32 0 C98.26 0.3, 160.89 -1.03, 252.29 0 M32 0 C85.52 -1.19, 138.83 -1.54, 252.29 0 M252.29 0 C273.23 0.24, 283.8 9.57, 284.29 32 M252.29 0 C272.77 0.13, 285.5 9.5, 284.29 32 M284.29 32 C284.76 62.65, 284.94 96.25, 284.29 115.14 M284.29 32 C285.28 63.44, 284.4 93.99, 284.29 115.14 M284.29 115.14 C285.15 138.34, 271.62 148.99, 252.29 147.14 M284.29 115.14 C286.44 138.26, 274.75 149.1, 252.29 147.14 M252.29 147.14 C173.72 147.41, 95.49 145.88, 32 147.14 M252.29 147.14 C205.98 148.72, 158.38 148.71, 32 147.14 M32 147.14 C10.74 146.95, -0.21 134.81, 0 115.14 M32 147.14 C10.85 145.64, -0.53 137.26, 0 115.14 M0 115.14 C0.24 96.99, 1.64 79.09, 0 32 M0 115.14 C-0.48 89.67, 0.56 62.55, 0 32 M0 32 C1.69 11.75, 11.1 -1.07, 32 0 M0 32 C2.23 10.09, 10.66 1.22, 32 0" stroke="#000000" stroke-width="4" fill="none"></path></g><g transform="translate(997.5801538747935 303.57142857142867) rotate(0 126.01795959472656 45)"><text x="0" y="0" font-family="Virgil, Segoe UI Emoji" font-size="36px" fill="#000000" text-anchor="start" style="white-space: pre;" direction="ltr" dominant-baseline="text-before-edge">slice image</text><text x="0" y="45" font-family="Virgil, Segoe UI Emoji" font-size="36px" fill="#000000" text-anchor="start" style="white-space: pre;" direction="ltr" dominant-baseline="text-before-edge">and make item</text></g><g stroke-linecap="round"><g transform="translate(790.4372967319364 305.7142857142857) rotate(0 92.22845993003136 24.130316032815188)"><path d="M-2.42 0.53 C27.67 8.73, 151.06 41.88, 181.82 49.9 M1.46 -1.64 C32.28 5.78, 155.83 38.78, 186.88 46.39" stroke="#1971c2" stroke-width="4" fill="none"></path></g><g transform="translate(790.4372967319364 305.7142857142857) rotate(0 92.22845993003136 24.130316032815188)"><path d="M157.79 45.78 C171.27 45.73, 179.86 50.57, 185.98 47.05 M157.39 49.66 C166.82 49.29, 173.56 49.89, 185.82 48.01" stroke="#1971c2" stroke-width="4" fill="none"></path></g><g transform="translate(790.4372967319364 305.7142857142857) rotate(0 92.22845993003136 24.130316032815188)"><path d="M162.9 25.91 C174.71 32.63, 181.54 44.33, 185.98 47.05 M162.5 29.79 C170.35 35.16, 175.59 41.6, 185.82 48.01" stroke="#1971c2" stroke-width="4" fill="none"></path></g></g><mask></mask><g stroke-linecap="round" transform="translate(439.0087253033648 473.5714285714288) rotate(0 165 94.99999999999994)"><path d="M32 0 M32 0 C130.88 -0.29, 231.83 -0.65, 298 0 M32 0 C129.27 -1.83, 226.55 -1.58, 298 0 M298 0 C319.42 -1.25, 331.12 9.23, 330 32 M298 0 C317.2 0.68, 329.62 9.28, 330 32 M330 32 C329.83 61.8, 329.21 90.97, 330 158 M330 32 C329.35 63.56, 328.37 94.1, 330 158 M330 158 C329.42 177.82, 320.78 188.66, 298 190 M330 158 C328.88 180.14, 317.12 190.87, 298 190 M298 190 C224.95 190.82, 153.81 190.21, 32 190 M298 190 C194.09 191.2, 90.34 191.37, 32 190 M32 190 C10.15 189.54, 1.6 178.19, 0 158 M32 190 C10.33 191.54, 0.67 180.3, 0 158 M0 158 C-1.97 130.4, -1.64 103.13, 0 32 M0 158 C1.62 129.31, 0.63 100.03, 0 32 M0 32 C-1.52 9.04, 11.33 -0.44, 32 0 M0 32 C-0.04 10.71, 12.38 1.09, 32 0" stroke="#000000" stroke-width="4" fill="none"></path></g><g transform="translate(460.4372967319364 505) rotate(0 149.27395629882812 67.5)"><text x="0" y="0" font-family="Virgil, Segoe UI Emoji" font-size="36px" fill="#000000" text-anchor="start" style="white-space: pre;" direction="ltr" dominant-baseline="text-before-edge">update thumbnail</text><text x="0" y="45" font-family="Virgil, Segoe UI Emoji" font-size="36px" fill="#000000" text-anchor="start" style="white-space: pre;" direction="ltr" dominant-baseline="text-before-edge">and get position</text><text x="0" y="90" font-family="Virgil, Segoe UI Emoji" font-size="36px" fill="#000000" text-anchor="start" style="white-space: pre;" direction="ltr" dominant-baseline="text-before-edge">from user click</text></g><g stroke-linecap="round"><g transform="translate(963.0031774531569 402.8010219388932) rotate(0 -90.92752442680529 48.29562295221416)"><path d="M-2.47 2.76 C-32.6 18.47, -153.8 79.82, -183.24 94.8 M1.39 1.79 C-27.66 16.64, -147.8 75.04, -178.01 90.63" stroke="#1971c2" stroke-width="4" fill="none"></path></g><g transform="translate(963.0031774531569 402.8010219388932) rotate(0 -90.92752442680529 48.29562295221416)"><path d="M-153.43 65.77 C-159.47 75.9, -167.01 78.45, -178.29 89.78 M-156.35 69.23 C-162.86 75.59, -167.52 80.21, -179.33 91.71" stroke="#1971c2" stroke-width="4" fill="none"></path></g><g transform="translate(963.0031774531569 402.8010219388932) rotate(0 -90.92752442680529 48.29562295221416)"><path d="M-144.26 84.13 C-152.33 90.18, -161.82 88.81, -178.29 89.78 M-147.18 87.59 C-155.8 89.91, -162.48 90.46, -179.33 91.71" stroke="#1971c2" stroke-width="4" fill="none"></path></g></g><mask></mask><g stroke-linecap="round"><g transform="translate(599.0087253033653 677.1428571428571) rotate(0 0.5981676084122114 49.151859383114754)"><path d="M-2.16 1.56 C-1.19 16.95, 2.68 79.42, 3.36 95.08 M1.86 -0.06 C2.86 16.94, 2.42 81.93, 2.17 98.37" stroke="#1971c2" stroke-width="4" fill="none"></path></g><g transform="translate(599.0087253033653 677.1428571428571) rotate(0 0.5981676084122114 49.151859383114754)"><path d="M-5.61 72.84 C-6.06 76.89, -3.31 81.37, -0.96 99.1 M-8.82 71.91 C-5.43 80.65, -2.5 89.09, 3.6 97.34" stroke="#1971c2" stroke-width="4" fill="none"></path></g><g transform="translate(599.0087253033653 677.1428571428571) rotate(0 0.5981676084122114 49.151859383114754)"><path d="M14.92 73.03 C10.11 76.72, 8.51 81.16, -0.96 99.1 M11.7 72.1 C8.57 80.85, 4.98 89.24, 3.6 97.34" stroke="#1971c2" stroke-width="4" fill="none"></path></g></g><mask></mask><g stroke-linecap="round" transform="translate(470.43729673193684 792.1428571428571) rotate(0 132.85714285714278 73.57142857142856)"><path d="M32 0 M32 0 C96.48 -1.65, 163.27 0.05, 233.71 0 M32 0 C101.49 0.95, 171.73 2.3, 233.71 0 M233.71 0 C253.3 0.33, 265.39 12.4, 265.71 32 M233.71 0 C256.77 -0.74, 265.23 8.87, 265.71 32 M265.71 32 C267.98 53.95, 268.23 74.46, 265.71 115.14 M265.71 32 C266.06 48.06, 264.95 66.04, 265.71 115.14 M265.71 115.14 C266.65 137.07, 255 147.88, 233.71 147.14 M265.71 115.14 C266.92 135.91, 257.06 147.22, 233.71 147.14 M233.71 147.14 C179.83 144.78, 130.31 145.15, 32 147.14 M233.71 147.14 C179.75 148.62, 126.85 147.32, 32 147.14 M32 147.14 C11.36 145.8, 1.45 137.37, 0 115.14 M32 147.14 C12.49 146.06, -0.3 138.54, 0 115.14 M0 115.14 C0.55 95.6, -0.11 75.93, 0 32 M0 115.14 C-0.84 85.43, -0.4 56.67, 0 32 M0 32 C-1.56 8.82, 10.85 -0.45, 32 0 M0 32 C-2.22 8.67, 12.15 2.25, 32 0" stroke="#000000" stroke-width="4" fill="none"></path></g><g transform="translate(536.1515824462224 826.4285714285713) rotate(0 65.05197143554688 45)"><text x="0" y="0" font-family="Virgil, Segoe UI Emoji" font-size="36px" fill="#000000" text-anchor="start" style="white-space: pre;" direction="ltr" dominant-baseline="text-before-edge">update</text><text x="0" y="45" font-family="Virgil, Segoe UI Emoji" font-size="36px" fill="#000000" text-anchor="start" style="white-space: pre;" direction="ltr" dominant-baseline="text-before-edge">position</text></g><g stroke-linecap="round"><g transform="translate(604.7230110176508 955.7142857142856) rotate(0 0.24140467307103108 37.088937218061574)"><path d="M1.93 -0.63 C2.37 11.46, 0.88 61.97, 0.46 74.1 M-0.47 -3.44 C-0.17 8.97, -1.15 64.71, -1.53 77.62" stroke="#1971c2" stroke-width="4" fill="none"></path></g><g transform="translate(604.7230110176508 955.7142857142856) rotate(0 0.24140467307103108 37.088937218061574)"><path d="M-12.08 49.88 C-8.98 54.56, -9.69 62.47, -0.82 79.69 M-12.24 50.83 C-9.7 59.16, -3.87 66.1, 0.23 76.02" stroke="#1971c2" stroke-width="4" fill="none"></path></g><g transform="translate(604.7230110176508 955.7142857142856) rotate(0 0.24140467307103108 37.088937218061574)"><path d="M8.44 50.32 C6.96 55.19, 1.68 63, -0.82 79.69 M8.28 51.28 C4.29 59.84, 3.58 66.64, 0.23 76.02" stroke="#1971c2" stroke-width="4" fill="none"></path></g></g><mask></mask><g stroke-linecap="round" transform="translate(479.0087253033653 1043.5714285714284) rotate(0 132.85714285714278 73.57142857142856)"><path d="M32 0 M32 0 C90.97 0.6, 151.31 0.38, 233.71 0 M32 0 C91.18 0.15, 149.74 -0.73, 233.71 0 M233.71 0 C254.31 -0.53, 266.45 12.65, 265.71 32 M233.71 0 C253.81 0.64, 266.43 11.79, 265.71 32 M265.71 32 C267.37 59, 266.67 90.12, 265.71 115.14 M265.71 32 C265.63 58.82, 264.93 84.72, 265.71 115.14 M265.71 115.14 C266.61 136.86, 255.7 147.43, 233.71 147.14 M265.71 115.14 C266.75 136.84, 254.14 146.4, 233.71 147.14 M233.71 147.14 C173.99 146.53, 114.87 147.89, 32 147.14 M233.71 147.14 C171.47 147.32, 110.16 147.19, 32 147.14 M32 147.14 C12.64 145.98, -1.67 138.12, 0 115.14 M32 147.14 C10.04 147.24, 1.46 136.02, 0 115.14 M0 115.14 C-0.23 94.56, 0.13 71.75, 0 32 M0 115.14 C0.31 85.77, -0.43 57.3, 0 32 M0 32 C-0.05 9.27, 9.47 0.89, 32 0 M0 32 C0.46 10.18, 11.33 -2.16, 32 0" stroke="#000000" stroke-width="4" fill="none"></path></g><g transform="translate(514.7230110176508 1073.5714285714284) rotate(0 92.30396270751953 45)"><text x="0" y="0" font-family="Virgil, Segoe UI Emoji" font-size="36px" fill="#000000" text-anchor="start" style="white-space: pre;" direction="ltr" dominant-baseline="text-before-edge">Click</text><text x="0" y="45" font-family="Virgil, Segoe UI Emoji" font-size="36px" fill="#000000" text-anchor="start" style="white-space: pre;" direction="ltr" dominant-baseline="text-before-edge">save game</text></g><g stroke-linecap="round"><g transform="translate(457.5801538747937 865.7142857142858) rotate(0 -223.14143311711098 -313.74165443953666)"><path d="M-2.53 0.73 C-75.21 -37.31, -385.53 -124.07, -436.32 -228.89 C-487.11 -333.71, -328.53 -561.29, -307.25 -628.21 M1.3 -1.35 C-71.53 -40.18, -385.73 -129.37, -437.34 -233.3 C-488.94 -337.22, -329.89 -558.99, -308.34 -624.9" stroke="#1971c2" stroke-width="4" fill="none"></path></g><g transform="translate(457.5801538747937 865.7142857142858) rotate(0 -223.14143311711098 -313.74165443953666)"><path d="M-310.76 -591.89 C-309.05 -601.85, -309.11 -612.48, -310.92 -628.23 M-313.46 -595.79 C-310.02 -602.61, -309.44 -613.13, -306.42 -624.58" stroke="#1971c2" stroke-width="4" fill="none"></path></g><g transform="translate(457.5801538747937 865.7142857142858) rotate(0 -223.14143311711098 -313.74165443953666)"><path d="M-329.1 -601.08 C-322.08 -608.03, -316.79 -615.98, -310.92 -628.23 M-331.81 -604.99 C-322.94 -609.37, -316.98 -617.2, -306.42 -624.58" stroke="#1971c2" stroke-width="4" fill="none"></path></g></g><mask></mask><g transform="translate(290.43729673193684 878.5714285714284) rotate(0 71.31597137451172 17.5)"><text x="0" y="0" font-family="Virgil, Segoe UI Emoji" font-size="28px" fill="#000000" text-anchor="start" style="white-space: pre;" direction="ltr" dominant-baseline="text-before-edge">more item?</text></g><g transform="translate(633.294439589079 972.8571428571429) rotate(0 36.441978454589844 17.5)"><text x="0" y="0" font-family="Virgil, Segoe UI Emoji" font-size="28px" fill="#000000" text-anchor="start" style="white-space: pre;" direction="ltr" dominant-baseline="text-before-edge">done?</text></g><g stroke-linecap="round" transform="translate(989.8182491128887 860.8571428571429) rotate(0 132.85714285714278 77.85714285714289)"><path d="M32 0 M32 0 C77.86 0.3, 121.4 1.04, 233.71 0 M32 0 C91.64 -0.77, 151.61 -0.91, 233.71 0 M233.71 0 C256.6 -1.61, 264.56 9.71, 265.71 32 M233.71 0 C254.02 1.79, 266.81 9.03, 265.71 32 M265.71 32 C264.62 61.68, 263.41 94.84, 265.71 123.71 M265.71 32 C265.29 65.15, 265.7 98.53, 265.71 123.71 M265.71 123.71 C265.84 146.79, 253.94 154.59, 233.71 155.71 M265.71 123.71 C265.52 142.8, 253 157.02, 233.71 155.71 M233.71 155.71 C154.33 156.2, 77.37 156.78, 32 155.71 M233.71 155.71 C173.83 157.88, 111.86 156.64, 32 155.71 M32 155.71 C10.45 155.54, -0.68 144.2, 0 123.71 M32 155.71 C12.23 157.46, 1.64 144.46, 0 123.71 M0 123.71 C-1.69 95.6, -0.88 66.06, 0 32 M0 123.71 C-1.4 99.65, -0.07 75.3, 0 32 M0 32 C-0.84 8.98, 11.87 -0.26, 32 0 M0 32 C0.49 10.49, 8.52 1.53, 32 0" stroke="#000000" stroke-width="4" fill="none"></path></g><g transform="translate(1012.6753919700311 875.1428571428571) rotate(0 117.50396728515625 67.5)"><text x="0" y="0" font-family="Virgil, Segoe UI Emoji" font-size="36px" fill="#000000" text-anchor="start" style="white-space: pre;" direction="ltr" dominant-baseline="text-before-edge">Create Grid</text><text x="0" y="45" font-family="Virgil, Segoe UI Emoji" font-size="36px" fill="#000000" text-anchor="start" style="white-space: pre;" direction="ltr" dominant-baseline="text-before-edge">and store in </text><text x="0" y="90" font-family="Virgil, Segoe UI Emoji" font-size="36px" fill="#000000" text-anchor="start" style="white-space: pre;" direction="ltr" dominant-baseline="text-before-edge">DB</text></g><g stroke-linecap="round"><g transform="translate(761.24682054146 1102.722783914757) rotate(0 104.76289399738289 -73.85584425367017)"><path d="M0.46 -0.19 C35.52 -24.67, 176.77 -123.41, 212.26 -147.52 M-2.73 -2.76 C31.72 -26.9, 173.93 -121.97, 209.7 -145.08" stroke="#1971c2" stroke-width="4" fill="none"></path></g><g transform="translate(761.24682054146 1102.722783914757) rotate(0 104.76289399738289 -73.85584425367017)"><path d="M191.54 -121.85 C195.39 -129.21, 205.82 -136.76, 210.44 -147.06 M190.49 -119.92 C200.51 -131.75, 207.83 -141.74, 211.34 -145.32" stroke="#1971c2" stroke-width="4" fill="none"></path></g><g transform="translate(761.24682054146 1102.722783914757) rotate(0 104.76289399738289 -73.85584425367017)"><path d="M180.24 -138.98 C188.18 -140.05, 202.78 -141.29, 210.44 -147.06 M179.2 -137.05 C193.45 -142.35, 205.2 -145.64, 211.34 -145.32" stroke="#1971c2" stroke-width="4" fill="none"></path></g></g><mask></mask><g stroke-linecap="round" transform="translate(986.9611062557456 1362.2857142857138) rotate(0 132.85714285714278 73.57142857142856)"><path d="M32 0 M32 0 C84.99 -1.23, 138.57 -0.49, 233.71 0 M32 0 C99.34 -1.62, 164.51 -1.2, 233.71 0 M233.71 0 C253.44 -1.96, 267.47 8.72, 265.71 32 M233.71 0 C253.57 2.02, 264.7 11.01, 265.71 32 M265.71 32 C266.72 52.46, 266.17 71.94, 265.71 115.14 M265.71 32 C265.09 62.42, 265.55 93.26, 265.71 115.14 M265.71 115.14 C264.19 137.42, 255.55 148.55, 233.71 147.14 M265.71 115.14 C263.88 138.66, 255.26 148.66, 233.71 147.14 M233.71 147.14 C183.9 146.74, 135.62 145.94, 32 147.14 M233.71 147.14 C187.8 148.72, 142.27 149.23, 32 147.14 M32 147.14 C12.15 147.28, 1.83 134.62, 0 115.14 M32 147.14 C12.91 148.13, -0.45 136.89, 0 115.14 M0 115.14 C1.96 99.75, -0.04 81.06, 0 32 M0 115.14 C-0.58 95.02, 0.1 73.31, 0 32 M0 32 C1.49 9.74, 10.42 0.42, 32 0 M0 32 C0.62 12.16, 11.7 -1.83, 32 0" stroke="#000000" stroke-width="4" fill="none"></path></g><g transform="translate(1002.6753919700311 1372.2857142857138) rotate(0 117.64795684814453 67.5)"><text x="0" y="0" font-family="Virgil, Segoe UI Emoji" font-size="36px" fill="#000000" text-anchor="start" style="white-space: pre;" direction="ltr" dominant-baseline="text-before-edge">Create Game</text><text x="0" y="45" font-family="Virgil, Segoe UI Emoji" font-size="36px" fill="#000000" text-anchor="start" style="white-space: pre;" direction="ltr" dominant-baseline="text-before-edge">and store in</text><text x="0" y="90" font-family="Virgil, Segoe UI Emoji" font-size="36px" fill="#000000" text-anchor="start" style="white-space: pre;" direction="ltr" dominant-baseline="text-before-edge">DB</text></g><g stroke-linecap="round" transform="translate(986.9611062557459 1173.714285714285) rotate(0 132.85714285714278 73.57142857142856)"><path d="M32 0 M32 0 C105.18 0.6, 181.49 1.07, 233.71 0 M32 0 C103.1 0.66, 174.55 1.1, 233.71 0 M233.71 0 C253.8 0.3, 266.64 11.21, 265.71 32 M233.71 0 C253.6 2.23, 265.66 11.66, 265.71 32 M265.71 32 C265.15 58.69, 263.64 85.41, 265.71 115.14 M265.71 32 C265.7 61.21, 266.64 91.21, 265.71 115.14 M265.71 115.14 C267.03 134.56, 253.11 147.38, 233.71 147.14 M265.71 115.14 C267.14 137.06, 254.95 146.65, 233.71 147.14 M233.71 147.14 C156.09 148.71, 79.87 147.68, 32 147.14 M233.71 147.14 C185.43 147.41, 138.9 147.37, 32 147.14 M32 147.14 C10.81 147.93, -0.55 135.38, 0 115.14 M32 147.14 C10.11 148.41, -2.14 136.39, 0 115.14 M0 115.14 C1.71 91.38, -0.04 65.46, 0 32 M0 115.14 C0.75 91.96, 0.3 67.82, 0 32 M0 32 C-0.09 9.11, 10.21 -0.35, 32 0 M0 32 C1.82 11.94, 8.38 0.91, 32 0" stroke="#000000" stroke-width="4" fill="none"></path></g><g transform="translate(1006.9611062557458 1227.9999999999993) rotate(0 117.52195739746094 22.5)"><text x="0" y="0" font-family="Virgil, Segoe UI Emoji" font-size="36px" fill="#000000" text-anchor="start" style="white-space: pre;" direction="ltr" dominant-baseline="text-before-edge">Send Grid ids</text></g><g stroke-linecap="round" transform="translate(476.9611062557458 1256.5714285714284) rotate(0 132.85714285714278 73.57142857142856)"><path d="M32 0 M32 0 C87.1 1.58, 138.51 3.1, 233.71 0 M32 0 C75.64 2.02, 117.13 1.53, 233.71 0 M233.71 0 C256.87 1.98, 264.87 10.51, 265.71 32 M233.71 0 C256.67 1.9, 264.49 9.8, 265.71 32 M265.71 32 C263.08 55.18, 263.04 75.45, 265.71 115.14 M265.71 32 C266.05 63.12, 265.79 93.26, 265.71 115.14 M265.71 115.14 C264.18 134.5, 254.64 147.83, 233.71 147.14 M265.71 115.14 C267.02 136.75, 255.47 148.52, 233.71 147.14 M233.71 147.14 C155.25 145.09, 72.6 145, 32 147.14 M233.71 147.14 C189.7 147.39, 147.05 146.55, 32 147.14 M32 147.14 C10.04 147.08, 1.36 138.41, 0 115.14 M32 147.14 C11.41 145.89, 1.01 136.03, 0 115.14 M0 115.14 C0.13 82.81, -1.87 53.94, 0 32 M0 115.14 C-1.32 82.8, 0.02 52.57, 0 32 M0 32 C0.09 8.74, 9.05 0.41, 32 0 M0 32 C0.08 8.52, 11.37 2.07, 32 0" stroke="#000000" stroke-width="4" fill="none"></path></g><g transform="translate(496.9611062557458 1285.1428571428569) rotate(0 118.907958984375 45)"><text x="0" y="0" font-family="Virgil, Segoe UI Emoji" font-size="36px" fill="#000000" text-anchor="start" style="white-space: pre;" direction="ltr" dominant-baseline="text-before-edge">create game </text><text x="0" y="45" font-family="Virgil, Segoe UI Emoji" font-size="36px" fill="#000000" text-anchor="start" style="white-space: pre;" direction="ltr" dominant-baseline="text-before-edge">from grid ids</text></g><g stroke-linecap="round"><g transform="translate(974.1039633986029 1254.4285714285713) rotate(0 -102.87314455871064 20.58130037023568)"><path d="M-0.6 -2.19 C-35.35 5.07, -173.64 35.76, -208.06 43.35 M4.27 2.79 C-30.85 9.15, -174.61 31.28, -210.02 38.61" stroke="#1971c2" stroke-width="4" fill="none"></path></g><g transform="translate(974.1039633986029 1254.4285714285713) rotate(0 -102.87314455871064 20.58130037023568)"><path d="M-187.17 24.33 C-191.58 30.3, -199.76 31.01, -206.36 36.48 M-182.61 22.57 C-192.37 28, -202.38 35.07, -209.42 38.26" stroke="#1971c2" stroke-width="4" fill="none"></path></g><g transform="translate(974.1039633986029 1254.4285714285713) rotate(0 -102.87314455871064 20.58130037023568)"><path d="M-183.6 44.54 C-189.11 44.1, -198.43 38.42, -206.36 36.48 M-179.04 42.78 C-189.9 40.55, -201.26 39.93, -209.42 38.26" stroke="#1971c2" stroke-width="4" fill="none"></path></g></g><mask></mask><g stroke-linecap="round"><g transform="translate(765.5325348271745 1355.857142857143) rotate(0 98.68141039588085 35.12121956668261)"><path d="M0.51 0.5 C33.95 12.85, 167.24 59.7, 200.02 71.95 M-2.65 -1.7 C30.59 9.94, 165.68 55.29, 198.56 67.22" stroke="#1971c2" stroke-width="4" fill="none"></path></g><g transform="translate(765.5325348271745 1355.857142857143) rotate(0 98.68141039588085 35.12121956668261)"><path d="M169.27 69.73 C177.67 65.45, 188.95 65.18, 201.79 64.58 M170.32 66.06 C180.82 67.57, 190.38 67.31, 198.22 67.06" stroke="#1971c2" stroke-width="4" fill="none"></path></g><g transform="translate(765.5325348271745 1355.857142857143) rotate(0 98.68141039588085 35.12121956668261)"><path d="M176 50.34 C182.22 51.49, 191.63 56.62, 201.79 64.58 M177.06 46.68 C185.45 54.97, 192.62 61.57, 198.22 67.06" stroke="#1971c2" stroke-width="4" fill="none"></path></g></g><mask></mask><g stroke-linecap="round" transform="translate(985.5325348271747 1605.1428571428569) rotate(0 132.85714285714278 73.57142857142856)"><path d="M32 0 M32 0 C104.04 -2.18, 174.36 -2.01, 233.71 0 M32 0 C105.91 2.55, 179.55 0.92, 233.71 0 M233.71 0 C253.97 1.28, 267.35 12.63, 265.71 32 M233.71 0 C254.14 1.37, 265.91 9.07, 265.71 32 M265.71 32 C266.88 60.36, 265.3 93.09, 265.71 115.14 M265.71 32 C266.14 57.95, 265.37 83.56, 265.71 115.14 M265.71 115.14 C266.35 137.55, 253.71 148.95, 233.71 147.14 M265.71 115.14 C264.1 138.54, 253.05 148.26, 233.71 147.14 M233.71 147.14 C152.86 147.05, 74.28 147.27, 32 147.14 M233.71 147.14 C157.81 149.21, 80.33 148.22, 32 147.14 M32 147.14 C11.19 146.64, 0.6 136.05, 0 115.14 M32 147.14 C12.01 147.86, 0.89 134.69, 0 115.14 M0 115.14 C-0.7 87.82, 0.5 60.8, 0 32 M0 115.14 C-1.38 88.54, -1.18 59.66, 0 32 M0 32 C1.51 11.01, 10.83 0.13, 32 0 M0 32 C1.38 11.62, 12.21 -0.41, 32 0" stroke="#000000" stroke-width="4" fill="none"></path></g><g transform="translate(998.3896776843173 1658) rotate(0 122.66995239257812 22.5)"><text x="0" y="0" font-family="Virgil, Segoe UI Emoji" font-size="36px" fill="#000000" text-anchor="start" style="white-space: pre;" direction="ltr" dominant-baseline="text-before-edge">Send response</text></g><g stroke-linecap="round" transform="translate(475.5325348271746 1595.142857142857) rotate(0 132.85714285714278 73.57142857142856)"><path d="M32 0 M32 0 C110.02 1.08, 186.45 1.83, 233.71 0 M32 0 C91.17 1.96, 149.68 1.93, 233.71 0 M233.71 0 C255.14 -0.53, 266.22 12.18, 265.71 32 M233.71 0 C253.37 -0.32, 266.13 8.38, 265.71 32 M265.71 32 C267.29 58.83, 266.16 90.09, 265.71 115.14 M265.71 32 C266.54 51.65, 265.46 68.9, 265.71 115.14 M265.71 115.14 C265.3 134.51, 256.78 146.14, 233.71 147.14 M265.71 115.14 C264.72 138.17, 256.12 148.62, 233.71 147.14 M233.71 147.14 C157.72 147.11, 81.76 149.79, 32 147.14 M233.71 147.14 C191.99 146.07, 150.06 145.78, 32 147.14 M32 147.14 C8.82 148.84, 1.22 138.4, 0 115.14 M32 147.14 C12.69 148.76, 1.64 135.69, 0 115.14 M0 115.14 C-1.2 81.25, -1.58 49.19, 0 32 M0 115.14 C-1.33 91.75, -0.72 66.42, 0 32 M0 32 C0.31 9.77, 12.42 -1.67, 32 0 M0 32 C-1.57 9.22, 11.5 0.39, 32 0" stroke="#000000" stroke-width="4" fill="none"></path></g><g transform="translate(512.6753919700316 1626.5714285714284) rotate(0 97.70396423339844 45)"><text x="0" y="0" font-family="Virgil, Segoe UI Emoji" font-size="36px" fill="#000000" text-anchor="start" style="white-space: pre;" direction="ltr" dominant-baseline="text-before-edge">redirect to</text><text x="0" y="45" font-family="Virgil, Segoe UI Emoji" font-size="36px" fill="#000000" text-anchor="start" style="white-space: pre;" direction="ltr" dominant-baseline="text-before-edge">dashboard</text></g><g transform="translate(1431.961106255746 842.2857142857144) rotate(0 129.16795349121094 45)"><text x="0" y="0" font-family="Virgil, Segoe UI Emoji" font-size="36px" fill="#000000" text-anchor="start" style="white-space: pre;" direction="ltr" dominant-baseline="text-before-edge">database Side</text><text x="0" y="45" font-family="Virgil, Segoe UI Emoji" font-size="36px" fill="#000000" text-anchor="start" style="white-space: pre;" direction="ltr" dominant-baseline="text-before-edge"></text></g><g stroke-linecap="round" transform="translate(1424.1039633986034 940.8571428571429) rotate(0 132.85714285714278 73.57142857142856)"><path d="M32 0 M32 0 C78.49 0.9, 129.56 2.16, 233.71 0 M32 0 C87.34 -2.39, 142.74 -2.44, 233.71 0 M233.71 0 C253.23 -1.3, 263.98 10.95, 265.71 32 M233.71 0 C257.02 -0.75, 267.58 9.84, 265.71 32 M265.71 32 C267.32 64.12, 266.05 96.51, 265.71 115.14 M265.71 32 C265.44 56.93, 264.09 84.61, 265.71 115.14 M265.71 115.14 C264.94 137.34, 255.24 146.94, 233.71 147.14 M265.71 115.14 C264.93 137.89, 255.08 146.1, 233.71 147.14 M233.71 147.14 C160.62 149.21, 87.35 149.46, 32 147.14 M233.71 147.14 C158.7 145.84, 85.13 145.93, 32 147.14 M32 147.14 C12.59 148.96, 1.19 135.66, 0 115.14 M32 147.14 C9.61 148.66, -1.21 136.66, 0 115.14 M0 115.14 C0.09 96.2, 2.71 78.12, 0 32 M0 115.14 C-1.45 81.91, 0.02 50.18, 0 32 M0 32 C1.02 8.95, 9.3 0.16, 32 0 M0 32 C0.26 8.55, 11.41 -0.39, 32 0" stroke="#000000" stroke-width="4" fill="none"></path></g><g transform="translate(1435.5325348271745 968.0000000000002) rotate(0 124.41596221923828 45)"><text x="0" y="0" font-family="Virgil, Segoe UI Emoji" font-size="36px" fill="#000000" text-anchor="start" style="white-space: pre;" direction="ltr" dominant-baseline="text-before-edge">Save data in</text><text x="0" y="45" font-family="Virgil, Segoe UI Emoji" font-size="36px" fill="#000000" text-anchor="start" style="white-space: pre;" direction="ltr" dominant-baseline="text-before-edge">Grid document</text></g><g stroke-linecap="round" transform="translate(1424.1039633986034 1195.1428571428569) rotate(0 132.85714285714278 73.57142857142856)"><path d="M32 0 M32 0 C98.98 1.69, 164.63 0.51, 233.71 0 M32 0 C109.97 -1.71, 187.48 -2.62, 233.71 0 M233.71 0 C255.23 -1.98, 266.65 11.97, 265.71 32 M233.71 0 C255 1.72, 264.18 9.77, 265.71 32 M265.71 32 C266.37 52.77, 265.61 74.11, 265.71 115.14 M265.71 32 C265.86 54.27, 266.36 76.08, 265.71 115.14 M265.71 115.14 C265.03 138.45, 254.73 148.56, 233.71 147.14 M265.71 115.14 C265.39 135.73, 254.8 147.55, 233.71 147.14 M233.71 147.14 C155.46 146.55, 78.33 146.86, 32 147.14 M233.71 147.14 C190.66 147.33, 149.07 148.05, 32 147.14 M32 147.14 C11.16 145.58, 0.92 137.61, 0 115.14 M32 147.14 C9.47 147.51, -0.54 136.38, 0 115.14 M0 115.14 C0.94 92.71, 0.66 69.42, 0 32 M0 115.14 C-0.61 82.19, -0.16 50.45, 0 32 M0 32 C1.97 8.96, 11.82 -1.26, 32 0 M0 32 C-0.38 12.8, 8.99 0.43, 32 0" stroke="#000000" stroke-width="4" fill="none"></path></g><g transform="translate(1435.5325348271745 1222.2857142857142) rotate(0 120.36595916748047 45)"><text x="0" y="0" font-family="Virgil, Segoe UI Emoji" font-size="36px" fill="#000000" text-anchor="start" style="white-space: pre;" direction="ltr" dominant-baseline="text-before-edge">generate ids</text><text x="0" y="45" font-family="Virgil, Segoe UI Emoji" font-size="36px" fill="#000000" text-anchor="start" style="white-space: pre;" direction="ltr" dominant-baseline="text-before-edge">for each Grid</text></g><g stroke-linecap="round"><g transform="translate(1266.961106255746 935.8571428571429) rotate(0 71.5263938370347 39.73237480432317)"><path d="M1.44 0.52 C24.46 13.96, 115.77 67.75, 138.62 81.13 M-1.22 -1.67 C22.7 11, 121.42 64.48, 144.27 77.51" stroke="#1971c2" stroke-width="4" fill="none"></path></g><g transform="translate(1266.961106255746 935.8571428571429) rotate(0 71.5263938370347 39.73237480432317)"><path d="M115.37 70.87 C127.74 71.9, 136.75 72.88, 146.42 80.39 M116.28 72.61 C122.67 74.13, 129.1 75.48, 143.78 75.71" stroke="#1971c2" stroke-width="4" fill="none"></path></g><g transform="translate(1266.961106255746 935.8571428571429) rotate(0 71.5263938370347 39.73237480432317)"><path d="M125.31 52.92 C134.58 59.76, 140.42 66.45, 146.42 80.39 M126.21 54.65 C130.45 60.48, 134.41 66.29, 143.78 75.71" stroke="#1971c2" stroke-width="4" fill="none"></path></g></g><mask></mask><g stroke-linecap="round"><g transform="translate(1559.8182491128887 1101.5714285714284) rotate(0 0.10279406120069723 39.16388011994377)"><path d="M0.9 0.7 C0.85 13.78, -0.92 64.46, -0.99 77.39 M-0.09 0.01 C0.29 13.3, 1.2 65.08, 1.2 78.31" stroke="#000000" stroke-width="4" fill="none"></path></g><g transform="translate(1559.8182491128887 1101.5714285714284) rotate(0 0.10279406120069723 39.16388011994377)"><path d="M-8.19 48.58 C-9.02 57.71, -5 65.41, 2.66 79.93 M-8.67 49.34 C-6.66 59.01, -2.4 67.74, 1.15 78.05" stroke="#000000" stroke-width="4" fill="none"></path></g><g transform="translate(1559.8182491128887 1101.5714285714284) rotate(0 0.10279406120069723 39.16388011994377)"><path d="M12.33 48.36 C6.53 57.7, 5.59 65.46, 2.66 79.93 M11.85 49.12 C7.82 58.84, 6.03 67.63, 1.15 78.05" stroke="#000000" stroke-width="4" fill="none"></path></g></g><mask></mask><g stroke-linecap="round"><g transform="translate(1408.3896776843173 1254.4285714285713) rotate(0 -69.21336385067552 -3.0507588465246727)"><path d="M-1.38 2.56 C-25.21 1.66, -118.08 -3.51, -141.49 -4.88 M3.06 1.49 C-19.96 -0.21, -112.72 -6.69, -135.89 -8.66" stroke="#1971c2" stroke-width="4" fill="none"></path></g><g transform="translate(1408.3896776843173 1254.4285714285713) rotate(0 -69.21336385067552 -3.0507588465246727)"><path d="M-103.34 -18.87 C-113.9 -16.83, -125.14 -8.48, -137.96 -5.15 M-106.41 -17.1 C-113.57 -15.2, -120.07 -15.07, -135.38 -7.06" stroke="#1971c2" stroke-width="4" fill="none"></path></g><g transform="translate(1408.3896776843173 1254.4285714285713) rotate(0 -69.21336385067552 -3.0507588465246727)"><path d="M-104.91 1.59 C-114.99 -3.54, -125.68 -2.39, -137.96 -5.15 M-107.97 3.36 C-115.13 0.76, -121.29 -3.6, -135.38 -7.06" stroke="#1971c2" stroke-width="4" fill="none"></path></g></g><mask></mask><g stroke-linecap="round" transform="translate(1428.3896776843176 1426.5714285714282) rotate(0 132.85714285714278 73.57142857142856)"><path d="M32 0 M32 0 C108.2 -1.35, 188 -0.44, 233.71 0 M32 0 C95.18 -0.46, 160.25 -0.17, 233.71 0 M233.71 0 C256.6 1.05, 265.48 11.2, 265.71 32 M233.71 0 C255.71 0.71, 266.65 9.87, 265.71 32 M265.71 32 C267.19 54.22, 266.08 73.62, 265.71 115.14 M265.71 32 C265.95 51.75, 265.8 71.71, 265.71 115.14 M265.71 115.14 C266.46 135, 256.32 147.69, 233.71 147.14 M265.71 115.14 C266.16 134.77, 252.87 145.82, 233.71 147.14 M233.71 147.14 C188.54 146.22, 141.9 146.48, 32 147.14 M233.71 147.14 C186.1 145.07, 140.43 146.1, 32 147.14 M32 147.14 C11.03 146.1, -0.56 135.01, 0 115.14 M32 147.14 C12.09 146.88, 0.46 137.71, 0 115.14 M0 115.14 C-1.08 88.48, 0.89 66.88, 0 32 M0 115.14 C-0.35 92.55, -0.98 70.2, 0 32 M0 32 C-1.99 9.2, 11.17 -1.12, 32 0 M0 32 C2.08 8.57, 11.37 0.43, 32 0" stroke="#000000" stroke-width="4" fill="none"></path></g><g transform="translate(1439.8182491128891 1453.714285714286) rotate(0 124.41596221923828 45)"><text x="0" y="0" font-family="Virgil, Segoe UI Emoji" font-size="36px" fill="#000000" text-anchor="start" style="white-space: pre;" direction="ltr" dominant-baseline="text-before-edge">Save data in</text><text x="0" y="45" font-family="Virgil, Segoe UI Emoji" font-size="36px" fill="#000000" text-anchor="start" style="white-space: pre;" direction="ltr" dominant-baseline="text-before-edge">Grid document</text></g><g stroke-linecap="round"><g transform="translate(1262.6753919700316 1430.142857142857) rotate(0 78.17591854175826 35.54893365890314)"><path d="M-1.49 2.26 C24.15 13.51, 126.14 59.27, 152.44 70.08 M2.9 1.02 C29.56 12.66, 132.39 54.48, 157.84 65.88" stroke="#1971c2" stroke-width="4" fill="none"></path></g><g transform="translate(1262.6753919700316 1430.142857142857) rotate(0 78.17591854175826 35.54893365890314)"><path d="M131.11 61.67 C137.57 67.89, 140.86 68.93, 154.64 69.18 M127.54 64.15 C136.03 63.06, 145.66 66.93, 158.63 66.83" stroke="#1971c2" stroke-width="4" fill="none"></path></g><g transform="translate(1262.6753919700316 1430.142857142857) rotate(0 78.17591854175826 35.54893365890314)"><path d="M139.14 42.78 C143.93 53.65, 145.21 59.43, 154.64 69.18 M135.56 45.26 C141.85 49.58, 149.17 58.89, 158.63 66.83" stroke="#1971c2" stroke-width="4" fill="none"></path></g></g><mask></mask><g stroke-linecap="round"><g transform="translate(1412.6753919700316 1542.9999999999998) rotate(0 -71.96579065003563 62.77096070038431)"><path d="M-1.85 1.51 C-25.79 21.6, -121.33 102.75, -145.13 122.84 M2.35 -0.15 C-21.65 20.1, -121.7 105.01, -146.28 125.69" stroke="#1971c2" stroke-width="4" fill="none"></path></g><g transform="translate(1412.6753919700316 1542.9999999999998) rotate(0 -71.96579065003563 62.77096070038431)"><path d="M-129.23 102.52 C-136.7 109.4, -141.51 115.6, -146.76 126.88 M-131.87 97.85 C-135.16 108.59, -139.09 115.28, -146.02 125.67" stroke="#1971c2" stroke-width="4" fill="none"></path></g><g transform="translate(1412.6753919700316 1542.9999999999998) rotate(0 -71.96579065003563 62.77096070038431)"><path d="M-115.98 118.19 C-126.97 121.03, -135.06 123.36, -146.76 126.88 M-118.62 113.52 C-125.6 119.81, -133.27 122.08, -146.02 125.67" stroke="#1971c2" stroke-width="4" fill="none"></path></g></g><mask></mask><g stroke-linecap="round"><g transform="translate(966.961106255746 1672.9999999999998) rotate(0 -103.21493639763443 1.1879988187151866)"><path d="M2.01 -1.44 C-32.27 -1.83, -172.59 -1.23, -207.54 -0.81 M-0.34 3.94 C-34.61 3.7, -173.79 1.59, -208.44 1.6" stroke="#1971c2" stroke-width="4" fill="none"></path></g><g transform="translate(966.961106255746 1672.9999999999998) rotate(0 -103.21493639763443 1.1879988187151866)"><path d="M-182.23 -4.9 C-189.87 -2.37, -193.78 -2.13, -209.14 0.91 M-179.64 -6.81 C-187.68 -5.06, -196.47 -3.09, -209.73 -0.06" stroke="#1971c2" stroke-width="4" fill="none"></path></g><g transform="translate(966.961106255746 1672.9999999999998) rotate(0 -103.21493639763443 1.1879988187151866)"><path d="M-182.4 15.62 C-190.23 13.34, -194.09 8.78, -209.14 0.91 M-179.82 13.71 C-187.7 9.47, -196.44 5.44, -209.73 -0.06" stroke="#1971c2" stroke-width="4" fill="none"></path></g></g><mask></mask></svg>