<svg version="1.1" xmlns="http://www.w3.org/2000/svg" viewBox="0 0 1332.059523809523 1534.321428571428" width="1332.059523809523" height="1534.321428571428">
  <!-- svg-source:excalidraw -->
  
  <defs>
    <style class="style-fonts">
      @font-face {
        font-family: "Virgil";
        src: url("https://excalidraw.com/Virgil.woff2");
      }
      @font-face {
        font-family: "Cascadia";
        src: url("https://excalidraw.com/Cascadia.woff2");
      }
    </style>
  </defs>
  <g stroke-linecap="round" transform="translate(963.4880952380945 10) rotate(0 179.28571428571422 308.30357142857133)"><path d="M33.71 0.89 L326.24 1.93 L339.71 1.52 L345.77 5.99 L354.46 14.39 L356.4 19.92 L356.83 32.89 L360.19 585.72 L356.13 597.51 L355.66 605.58 L345.12 613.99 L341.81 614.57 L328.01 617.89 L33.02 614.67 L17.44 614.73 L10.87 611.91 L4.21 603.03 L3.68 600.31 L0.88 586.34 L0.33 30.86 L1.56 16.17 L6.65 6.88 L18.31 3.34 L33.94 -0.1" stroke="none" stroke-width="0" fill="#b2f2bb"></path><path d="M32 0 M32 0 C145.49 0.3, 256.66 2.78, 326.57 0 M32 0 C92.99 -2.26, 153.94 -1.83, 326.57 0 M326.57 0 C348.76 1.38, 359.57 11.5, 358.57 32 M326.57 0 C346.19 0.12, 359.08 12.74, 358.57 32 M358.57 32 C360.69 234.38, 359.94 435.38, 358.57 584.61 M358.57 32 C358.44 241.62, 358.26 450.62, 358.57 584.61 M358.57 584.61 C359.81 605.9, 348.15 618.42, 326.57 616.61 M358.57 584.61 C358.07 605.27, 347.29 617.79, 326.57 616.61 M326.57 616.61 C232.97 616.75, 137.62 614.19, 32 616.61 M326.57 616.61 C224.97 615.33, 124.66 616.01, 32 616.61 M32 616.61 C10.82 616.82, -0.68 607.31, 0 584.61 M32 616.61 C9.57 618.68, -1.82 604.72, 0 584.61 M0 584.61 C1.87 438.41, 1.62 291.48, 0 32 M0 584.61 C-1.82 452.91, -2.01 320.92, 0 32 M0 32 C-1.53 9.98, 12.26 -0.25, 32 0 M0 32 C-2.23 8.94, 12.15 -0.58, 32 0" stroke="#000000" stroke-width="4" fill="none"></path></g><g stroke-linecap="round" transform="translate(506.78571428571286 20.92857142857133) rotate(0 179.28571428571422 735.1785714285713)"><path d="M31.67 1.93 L333.21 0.02 L340.27 3.49 L350.96 9.89 L353.9 14.42 L356.33 25.39 L360.19 1439.47 L357.63 1444.76 L355.66 1459.33 L345.12 1467.74 L335.31 1469.82 L25.94 1471.14 L19.02 1466.42 L7.44 1462.48 L2.87 1457.66 L0.21 1444.78 L1.68 33.71 L2.88 19.74 L8.33 6.86 L17.56 0.17 L30.65 -1.12" stroke="none" stroke-width="0" fill="#ffc9c9"></path><path d="M32 0 M32 0 C124.83 -0.87, 219.22 -3.25, 326.57 0 M32 0 C129.67 1.44, 225.57 2.69, 326.57 0 M326.57 0 C347.15 -1.66, 356.97 10.17, 358.57 32 M326.57 0 C348.89 1.59, 359.72 11.62, 358.57 32 M358.57 32 C359.59 349.46, 359.59 666.32, 358.57 1438.36 M358.57 32 C362.19 472.71, 362.27 912.84, 358.57 1438.36 M358.57 1438.36 C359.78 1460.36, 348.21 1468.56, 326.57 1470.36 M358.57 1438.36 C360 1459.64, 348.19 1472.45, 326.57 1470.36 M326.57 1470.36 C245.41 1470.05, 161.63 1468.94, 32 1470.36 M326.57 1470.36 C232.18 1468.91, 138.28 1468.39, 32 1470.36 M32 1470.36 C9.54 1468.47, 1.22 1459.62, 0 1438.36 M32 1470.36 C10.85 1470.6, -0.78 1461.26, 0 1438.36 M0 1438.36 C-5.51 1083.29, -5.86 728.97, 0 32 M0 1438.36 C-4.49 1063.03, -4.42 688.58, 0 32 M0 32 C1.61 11.67, 11.35 0.5, 32 0 M0 32 C-1.76 9.87, 12.5 -0.28, 32 0" stroke="#000000" stroke-width="4" fill="none"></path></g><g stroke-linecap="round" transform="translate(10 11.821428571428669) rotate(0 190.17857142857133 756.2499999999997)"><path d="M31.14 -0.48 L355.55 1.99 L362.74 3.89 L372.18 9.92 L374.12 13.39 L381.47 25.61 L379.92 1479.4 L381.45 1489.47 L374.9 1501.88 L369.09 1507.96 L357.3 1513.29 L25.52 1510.07 L17.44 1510.62 L6.37 1504.3 L4.21 1498.92 L2.18 1489.71 L0.88 33.74 L2.33 16.86 L7.56 6.17 L16.65 0.88 L32.31 1.34" stroke="none" stroke-width="0" fill="#ffec99"></path><path d="M32 0 M32 0 C158.89 -2.95, 283.51 -3.17, 348.36 0 M32 0 C95.51 2.59, 159.98 1.47, 348.36 0 M348.36 0 C368.09 -0.5, 381.22 12.05, 380.36 32 M348.36 0 C370.84 0.96, 378.64 10.79, 380.36 32 M380.36 32 C386.31 499.13, 385.69 965.93, 380.36 1480.5 M380.36 32 C378.1 350.4, 378.41 668.85, 380.36 1480.5 M380.36 1480.5 C380.66 1500.04, 370.93 1512.46, 348.36 1512.5 M380.36 1480.5 C380.64 1503.92, 369.19 1511.83, 348.36 1512.5 M348.36 1512.5 C260.86 1512.13, 175.68 1514.21, 32 1512.5 M348.36 1512.5 C278.41 1513.29, 209.42 1512.81, 32 1512.5 M32 1512.5 C11.89 1512.43, 0.16 1502.05, 0 1480.5 M32 1512.5 C9.88 1514.07, -1.1 1503.91, 0 1480.5 M0 1480.5 C2.3 1161.01, 2.81 841.8, 0 32 M0 1480.5 C-4.25 1141.5, -4.31 801.94, 0 32 M0 32 C0.69 11.17, 9.14 -0.69, 32 0 M0 32 C1.84 10.38, 8.43 -1.73, 32 0" stroke="#000000" stroke-width="4" fill="none"></path></g><g stroke-linecap="round" transform="translate(67.32142857142753 108.60714285714312) rotate(0 132.8571428571429 83.57142857142856)"><path d="M32 0 M32 0 C110.22 1.97, 185.03 2.15, 233.71 0 M32 0 C105.24 1.8, 178.25 1.66, 233.71 0 M233.71 0 C254.76 -1.08, 267.4 12.37, 265.71 32 M233.71 0 C256.06 2, 266.09 9.36, 265.71 32 M265.71 32 C263.65 60.96, 266.11 91.24, 265.71 135.14 M265.71 32 C265.82 62.73, 265.66 91.9, 265.71 135.14 M265.71 135.14 C267.22 154.64, 253.31 168.65, 233.71 167.14 M265.71 135.14 C264.84 154.56, 253.21 166.57, 233.71 167.14 M233.71 167.14 C165.28 166.71, 95.45 168.45, 32 167.14 M233.71 167.14 C155.49 168.91, 76.89 168.07, 32 167.14 M32 167.14 C9.91 168.72, -0.34 156.69, 0 135.14 M32 167.14 C12.06 167.91, 0.35 154.41, 0 135.14 M0 135.14 C1.84 97.37, -0.56 59.94, 0 32 M0 135.14 C-0.75 99.06, 0.73 61.8, 0 32 M0 32 C-1.6 11.54, 8.75 -0.52, 32 0 M0 32 C-1.29 8.5, 12.07 -0.08, 32 0" stroke="#000000" stroke-width="4" fill="none"></path></g><g transform="translate(104.10714285714312 122.53571428571445) rotate(0 95.47196197509766 67.5)"><text x="0" y="0" font-family="Virgil, Segoe UI Emoji" font-size="36px" fill="#000000" text-anchor="start" style="white-space: pre;" direction="ltr" dominant-baseline="text-before-edge">load game</text><text x="0" y="45" font-family="Virgil, Segoe UI Emoji" font-size="36px" fill="#000000" text-anchor="start" style="white-space: pre;" direction="ltr" dominant-baseline="text-before-edge">created by</text><text x="0" y="90" font-family="Virgil, Segoe UI Emoji" font-size="36px" fill="#000000" text-anchor="start" style="white-space: pre;" direction="ltr" dominant-baseline="text-before-edge">user</text></g><g transform="translate(584.4642857142844 32.53571428571445) rotate(0 98.33395385742188 45)"><text x="0" y="0" font-family="Virgil, Segoe UI Emoji" font-size="36px" fill="#000000" text-anchor="start" style="white-space: pre;" direction="ltr" dominant-baseline="text-before-edge">server Side</text><text x="0" y="45" font-family="Virgil, Segoe UI Emoji" font-size="36px" fill="#000000" text-anchor="start" style="white-space: pre;" direction="ltr" dominant-baseline="text-before-edge"></text></g><g transform="translate(110.71428571428442 34.14285714285734) rotate(0 88.93795013427734 22.5)"><text x="0" y="0" font-family="Virgil, Segoe UI Emoji" font-size="36px" fill="#000000" text-anchor="start" style="white-space: pre;" direction="ltr" dominant-baseline="text-before-edge">client side</text></g><g stroke-linecap="round" transform="translate(543.7499999999982 89.50000000000023) rotate(0 142.1428571428571 73.57142857142856)"><path d="M32 0 M32 0 C79.16 1.74, 129.67 1.04, 252.29 0 M32 0 C117.01 0.29, 201.81 0.6, 252.29 0 M252.29 0 C273.93 1.34, 286.22 10.57, 284.29 32 M252.29 0 C275.55 2.19, 282.53 11.35, 284.29 32 M284.29 32 C281.64 47.58, 284.98 65.89, 284.29 115.14 M284.29 32 C284.05 50.71, 284.12 68.46, 284.29 115.14 M284.29 115.14 C282.79 136.58, 274.06 148.95, 252.29 147.14 M284.29 115.14 C285.79 138.57, 274.87 147.45, 252.29 147.14 M252.29 147.14 C172.82 146.13, 90.81 147.47, 32 147.14 M252.29 147.14 C179.39 145.41, 105.53 146.22, 32 147.14 M32 147.14 C10.23 146.56, -0.53 137.51, 0 115.14 M32 147.14 C11.1 145.47, -1.29 136.9, 0 115.14 M0 115.14 C1.54 80.65, 0.15 48.86, 0 32 M0 115.14 C-0.43 98.14, -0.85 81.61, 0 32 M0 32 C-0.95 12.47, 9.08 -1.06, 32 0 M0 32 C-0.79 8.44, 11.26 -0.77, 32 0" stroke="#000000" stroke-width="4" fill="none"></path></g><g transform="translate(564.2857142857129 120.39285714285734) rotate(0 124.54195404052734 45)"><text x="0" y="0" font-family="Virgil, Segoe UI Emoji" font-size="36px" fill="#000000" text-anchor="start" style="white-space: pre;" direction="ltr" dominant-baseline="text-before-edge">fetch game by</text><text x="0" y="45" font-family="Virgil, Segoe UI Emoji" font-size="36px" fill="#000000" text-anchor="start" style="white-space: pre;" direction="ltr" dominant-baseline="text-before-edge">user ID</text></g><g transform="translate(1014.9166666666661 22.857142857143117) rotate(0 129.16795349121094 45)"><text x="0" y="0" font-family="Virgil, Segoe UI Emoji" font-size="36px" fill="#000000" text-anchor="start" style="white-space: pre;" direction="ltr" dominant-baseline="text-before-edge">database Side</text><text x="0" y="45" font-family="Virgil, Segoe UI Emoji" font-size="36px" fill="#000000" text-anchor="start" style="white-space: pre;" direction="ltr" dominant-baseline="text-before-edge"></text></g><g stroke-linecap="round" transform="translate(1005.3646849673632 90.74999999999989) rotate(0 142.1428571428571 58.57142857142861)"><path d="M29.29 0 M29.29 0 C74.87 2.12, 122.43 3.04, 255 0 M29.29 0 C101.71 -0.56, 172.88 -0.73, 255 0 M255 0 C273.17 0.15, 283.83 8.14, 284.29 29.29 M255 0 C275.33 1.17, 285.7 10.74, 284.29 29.29 M284.29 29.29 C283.9 49.37, 283.62 68.14, 284.29 87.86 M284.29 29.29 C283.5 46.05, 284.03 62.76, 284.29 87.86 M284.29 87.86 C284.56 106.33, 276.28 115.18, 255 117.14 M284.29 87.86 C282.84 106.56, 275.86 115.18, 255 117.14 M255 117.14 C165.66 119.3, 74.74 120.06, 29.29 117.14 M255 117.14 C196.38 118.09, 139.46 117.86, 29.29 117.14 M29.29 117.14 C10.52 116.53, -1.68 107.01, 0 87.86 M29.29 117.14 C8.21 117.52, 2.21 106.69, 0 87.86 M0 87.86 C2.47 71.44, 1.58 53.52, 0 29.29 M0 87.86 C0.66 70.94, -0.11 53.47, 0 29.29 M0 29.29 C-1.36 10.67, 8.77 -1.79, 29.29 0 M0 29.29 C1.44 9.69, 11.16 -0.07, 29.29 0" stroke="#000000" stroke-width="4" fill="none"></path></g><g transform="translate(1015.9003992530788 114.142857142857) rotate(0 133.18194580078125 35)"><text x="0" y="0" font-family="Virgil, Segoe UI Emoji" font-size="28px" fill="#000000" text-anchor="start" style="white-space: pre;" direction="ltr" dominant-baseline="text-before-edge">Game stored</text><text x="0" y="35" font-family="Virgil, Segoe UI Emoji" font-size="28px" fill="#000000" text-anchor="start" style="white-space: pre;" direction="ltr" dominant-baseline="text-before-edge">with userID as key</text></g><g stroke-linecap="round"><g transform="translate(842.507542110221 113.07142857142844) rotate(0 77.19657269977029 0.960015912055951)"><path d="M-0.73 0.21 C24.93 0.13, 129.39 0.96, 155.12 1.16 M4.07 -2.14 C29.37 -2.01, 129 3.05, 153.63 4.06" stroke="#1971c2" stroke-width="4" fill="none"></path></g><g transform="translate(842.507542110221 113.07142857142844) rotate(0 77.19657269977029 0.960015912055951)"><path d="M125.3 14.98 C132.78 9.99, 142.97 8.06, 152.31 2.61 M124.78 12.52 C132.26 9.81, 141.65 10.61, 151.79 2.54" stroke="#1971c2" stroke-width="4" fill="none"></path></g><g transform="translate(842.507542110221 113.07142857142844) rotate(0 77.19657269977029 0.960015912055951)"><path d="M126.24 -5.52 C133.64 -3.49, 143.5 1.6, 152.31 2.61 M125.72 -7.98 C132.6 -5.27, 141.73 0.98, 151.79 2.54" stroke="#1971c2" stroke-width="4" fill="none"></path></g></g><mask></mask><g stroke-linecap="round"><g transform="translate(991.257542110221 183.07142857142844) rotate(0 -71.48951429843919 6.056556385643773)"><path d="M-2.21 0.72 C-25.85 3.42, -119.68 11.32, -143.84 13.48 M1.79 -1.36 C-21.83 0.84, -119.56 7.87, -144.77 9.67" stroke="#1971c2" stroke-width="4" fill="none"></path></g><g transform="translate(991.257542110221 183.07142857142844) rotate(0 -71.48951429843919 6.056556385643773)"><path d="M-116.36 0.86 C-120.74 -1.47, -126.74 0.62, -145.92 9.7 M-115.52 -2.77 C-126.2 1.68, -131.85 5.76, -146.51 9.96" stroke="#1971c2" stroke-width="4" fill="none"></path></g><g transform="translate(991.257542110221 183.07142857142844) rotate(0 -71.48951429843919 6.056556385643773)"><path d="M-114.89 21.32 C-119.2 14.27, -125.54 11.66, -145.92 9.7 M-114.05 17.7 C-124.78 16.86, -130.82 15.62, -146.51 9.96" stroke="#1971c2" stroke-width="4" fill="none"></path></g></g><mask></mask><g stroke-linecap="round"><g transform="translate(346.25754211022104 130.57142857142844) rotate(0 90.90953812032944 -2.345393580496335)"><path d="M1.44 -2.26 C31.15 -3.27, 147.68 -2.41, 177.82 -3.3 M-1.22 2.69 C29.4 2.06, 152.55 -5.96, 183.04 -7.38" stroke="#1971c2" stroke-width="4" fill="none"></path></g><g transform="translate(346.25754211022104 130.57142857142844) rotate(0 90.90953812032944 -2.345393580496335)"><path d="M152.25 1.34 C165.52 4.04, 167.29 -3.09, 181.43 -4.28 M154.84 5.24 C164.67 0.62, 176.17 -2.27, 184.02 -9.29" stroke="#1971c2" stroke-width="4" fill="none"></path></g><g transform="translate(346.25754211022104 130.57142857142844) rotate(0 90.90953812032944 -2.345393580496335)"><path d="M151.09 -19.15 C165.1 -10.63, 167.2 -11.92, 181.43 -4.28 M153.69 -15.25 C164.22 -12.34, 176.15 -7.7, 184.02 -9.29" stroke="#1971c2" stroke-width="4" fill="none"></path></g></g><mask></mask><g stroke-linecap="round"><g transform="translate(526.257542110221 210.57142857142844) rotate(0 -88.10039906557654 10.327273895964026)"><path d="M1.78 -2.34 C-27.14 1.7, -146.48 19.53, -175.92 23 M-0.7 2.55 C-29.75 5.91, -148.78 16.02, -177.98 18.94" stroke="#1971c2" stroke-width="4" fill="none"></path></g><g transform="translate(526.257542110221 210.57142857142844) rotate(0 -88.10039906557654 10.327273895964026)"><path d="M-154.19 6.61 C-154.29 11.24, -166.62 13.49, -179.86 19.16 M-151.16 5.9 C-160.2 11.04, -165.7 12.52, -176.85 17.47" stroke="#1971c2" stroke-width="4" fill="none"></path></g><g transform="translate(526.257542110221 210.57142857142844) rotate(0 -88.10039906557654 10.327273895964026)"><path d="M-152.32 27.05 C-152.64 27.3, -165.37 25.16, -179.86 19.16 M-149.28 26.33 C-159.15 25.18, -165.23 20.33, -176.85 17.47" stroke="#1971c2" stroke-width="4" fill="none"></path></g></g><mask></mask><g stroke-linecap="round" transform="translate(63.40039925307883 372) rotate(0 132.8571428571429 41.696428571428555)"><path d="M20.85 0 M20.85 0 C99.45 -0.58, 175.2 0.22, 244.87 0 M20.85 0 C69.71 -2.14, 118.8 -1.15, 244.87 0 M244.87 0 C258.4 1.08, 265.78 8.05, 265.71 20.85 M244.87 0 C256.53 0.78, 263.9 8.32, 265.71 20.85 M265.71 20.85 C265.54 34.71, 264.19 49.59, 265.71 62.54 M265.71 20.85 C265.45 32.23, 266.16 42.3, 265.71 62.54 M265.71 62.54 C265.07 75.6, 259.84 81.92, 244.87 83.39 M265.71 62.54 C267.78 78.4, 258.04 84.45, 244.87 83.39 M244.87 83.39 C164.84 83.38, 81.26 81.54, 20.85 83.39 M244.87 83.39 C187.05 82.17, 128.73 82.81, 20.85 83.39 M20.85 83.39 C6.05 83.08, -1.36 74.74, 0 62.54 M20.85 83.39 C6.82 83.03, 1.49 76.86, 0 62.54 M0 62.54 C0.01 50.24, -0.79 39.29, 0 20.85 M0 62.54 C-0.21 53.8, 0.06 45.65, 0 20.85 M0 20.85 C-1.95 6.52, 6.74 0.15, 20.85 0 M0 20.85 C0.44 5.78, 7.48 0.37, 20.85 0" stroke="#000000" stroke-width="4" fill="none"></path></g><g transform="translate(76.61468496736506 396.2857142857142) rotate(0 120.81996154785156 17.5)"><text x="0" y="0" font-family="Virgil, Segoe UI Emoji" font-size="28px" fill="#000000" text-anchor="start" style="white-space: pre;" direction="ltr" dominant-baseline="text-before-edge">user choose game</text></g><g stroke-linecap="round"><g transform="translate(206.25754211022104 284.3922084859586) rotate(0 0.1602286333218217 39.15822339389399)"><path d="M1.41 0.45 C1.76 13.84, 1.37 67.49, 1.58 80.09 M-1.26 -1.77 C-1.1 10.85, -0.39 62.82, 0.21 76.12" stroke="#1971c2" stroke-width="4" fill="none"></path></g><g transform="translate(206.25754211022104 284.3922084859586) rotate(0 0.1602286333218217 39.15822339389399)"><path d="M-10.17 50.48 C-5 59.81, -7.65 66.3, 0.15 73.97 M-9.6 48.94 C-8.2 57.89, -2.02 69.21, 1.84 74.83" stroke="#1971c2" stroke-width="4" fill="none"></path></g><g transform="translate(206.25754211022104 284.3922084859586) rotate(0 0.1602286333218217 39.15822339389399)"><path d="M10.34 49.93 C9.73 59.62, 1.31 66.26, 0.15 73.97 M10.91 48.39 C4.32 57.68, 2.5 69.22, 1.84 74.83" stroke="#1971c2" stroke-width="4" fill="none"></path></g></g><mask></mask><g stroke-linecap="round" transform="translate(537.1503992530788 270.75) rotate(0 147.2321428571429 79.19642857142856)"><path d="M32 0 M32 0 C109.5 -1.73, 186.74 -1.02, 262.46 0 M32 0 C78.75 -1.42, 124.64 -0.17, 262.46 0 M262.46 0 C284.6 0.61, 292.79 10.66, 294.46 32 M262.46 0 C285.37 1.83, 293.03 8.7, 294.46 32 M294.46 32 C294.75 66.22, 295.93 100.8, 294.46 126.39 M294.46 32 C295.54 58.26, 294.56 83.63, 294.46 126.39 M294.46 126.39 C292.79 146.59, 282.93 158.24, 262.46 158.39 M294.46 126.39 C293.44 148.11, 284.97 157.12, 262.46 158.39 M262.46 158.39 C193.5 157.65, 123.77 159.53, 32 158.39 M262.46 158.39 C210.21 159.49, 157.37 158.3, 32 158.39 M32 158.39 C10.82 158.11, -1.98 147.34, 0 126.39 M32 158.39 C9.65 158.91, -0.51 145.45, 0 126.39 M0 126.39 C-0.92 97.19, 1.13 68.58, 0 32 M0 126.39 C0.77 101.86, 1.14 79.63, 0 32 M0 32 C0.73 11.78, 9.51 0.71, 32 0 M0 32 C-1.81 10.68, 8.84 1.83, 32 0" stroke="#000000" stroke-width="4" fill="none"></path></g><g transform="translate(555.3646849673651 300.0357142857142) rotate(0 120.07796478271484 52.5)"><text x="0" y="0" font-family="Virgil, Segoe UI Emoji" font-size="28px" fill="#000000" text-anchor="start" style="white-space: pre;" direction="ltr" dominant-baseline="text-before-edge">All Grid of game </text><text x="0" y="35" font-family="Virgil, Segoe UI Emoji" font-size="28px" fill="#000000" text-anchor="start" style="white-space: pre;" direction="ltr" dominant-baseline="text-before-edge">fetched from </text><text x="0" y="70" font-family="Virgil, Segoe UI Emoji" font-size="28px" fill="#000000" text-anchor="start" style="white-space: pre;" direction="ltr" dominant-baseline="text-before-edge">database</text></g><g stroke-linecap="round" transform="translate(1000.3646849673642 484.4999999999998) rotate(0 142.1428571428571 58.57142857142861)"><path d="M29.29 0 M29.29 0 C73.77 -1.29, 120.85 0.82, 255 0 M29.29 0 C86.1 -2.31, 141.56 -1.8, 255 0 M255 0 C274.77 -0.39, 285.99 8.67, 284.29 29.29 M255 0 C276.07 -0.55, 284.42 9.34, 284.29 29.29 M284.29 29.29 C286.07 47.37, 286.57 68.54, 284.29 87.86 M284.29 29.29 C284.14 51.16, 283.38 74.9, 284.29 87.86 M284.29 87.86 C284.58 106.37, 274.62 115.75, 255 117.14 M284.29 87.86 C282.02 106.26, 274 115.43, 255 117.14 M255 117.14 C185.5 115.87, 116.46 118.55, 29.29 117.14 M255 117.14 C164.95 118.71, 75.15 118.36, 29.29 117.14 M29.29 117.14 C9.15 117.91, -0.49 105.39, 0 87.86 M29.29 117.14 C7.79 117.69, -1.04 107.48, 0 87.86 M0 87.86 C1.69 65.78, -0.97 43.07, 0 29.29 M0 87.86 C0.73 74.75, -0.77 63.26, 0 29.29 M0 29.29 C0.29 11.07, 7.9 -0.12, 29.29 0 M0 29.29 C1.8 10.01, 8.99 -0.58, 29.29 0" stroke="#000000" stroke-width="4" fill="none"></path></g><g transform="translate(1010.9003992530797 507.8928571428569) rotate(0 102.3819580078125 35)"><text x="0" y="0" font-family="Virgil, Segoe UI Emoji" font-size="28px" fill="#000000" text-anchor="start" style="white-space: pre;" direction="ltr" dominant-baseline="text-before-edge">Room stored in</text><text x="0" y="35" font-family="Virgil, Segoe UI Emoji" font-size="28px" fill="#000000" text-anchor="start" style="white-space: pre;" direction="ltr" dominant-baseline="text-before-edge">Database</text></g><g stroke-linecap="round" transform="translate(534.0253992530779 506.375) rotate(0 147.2321428571429 79.19642857142856)"><path d="M32 0 M32 0 C77.85 -2.52, 126.25 -1.08, 262.46 0 M32 0 C95.55 1.89, 160.46 1.29, 262.46 0 M262.46 0 C283.64 0.53, 295.31 9.77, 294.46 32 M262.46 0 C283.64 -0.3, 294.13 8.98, 294.46 32 M294.46 32 C296.96 68.84, 294.39 106.36, 294.46 126.39 M294.46 32 C293.89 56.27, 294.76 79.17, 294.46 126.39 M294.46 126.39 C294.31 148.04, 285.41 156.44, 262.46 158.39 M294.46 126.39 C293.54 145.46, 284.06 159.73, 262.46 158.39 M262.46 158.39 C177.36 157.78, 95.46 158.13, 32 158.39 M262.46 158.39 C185.56 157.15, 107.17 158.05, 32 158.39 M32 158.39 C10.2 157.47, -0.28 148.81, 0 126.39 M32 158.39 C10.17 158.46, -1.23 149.15, 0 126.39 M0 126.39 C-0.91 102.59, -0.32 80.97, 0 32 M0 126.39 C-0.51 94.94, -1.61 61.5, 0 32 M0 32 C-0.54 9.88, 11.68 0.2, 32 0 M0 32 C-0.14 11.32, 12.51 -0.59, 32 0" stroke="#000000" stroke-width="4" fill="none"></path></g><g transform="translate(553.4896849673642 525.6607142857142) rotate(0 126.77890453338637 60.625)"><text x="0" y="0" font-family="Virgil, Segoe UI Emoji" font-size="24.250000000000018px" fill="#000000" text-anchor="start" style="white-space: pre;" direction="ltr" dominant-baseline="text-before-edge">Room data created</text><text x="0" y="30.31250000000002" font-family="Virgil, Segoe UI Emoji" font-size="24.250000000000018px" fill="#000000" text-anchor="start" style="white-space: pre;" direction="ltr" dominant-baseline="text-before-edge">with the grids, </text><text x="0" y="60.62500000000004" font-family="Virgil, Segoe UI Emoji" font-size="24.250000000000018px" fill="#000000" text-anchor="start" style="white-space: pre;" direction="ltr" dominant-baseline="text-before-edge">stored both in </text><text x="0" y="90.93750000000006" font-family="Virgil, Segoe UI Emoji" font-size="24.250000000000018px" fill="#000000" text-anchor="start" style="white-space: pre;" direction="ltr" dominant-baseline="text-before-edge">server and database</text></g><g stroke-linecap="round"><g transform="translate(337.0441339905633 394.6437536058181) rotate(0 97.29496687181427 -26.832765891599706)"><path d="M1.71 -2.59 C34.31 -12.3, 162.95 -47.24, 195.39 -55.85 M-0.8 2.18 C31.38 -6.01, 160.26 -44.37, 192.87 -53.29" stroke="#1971c2" stroke-width="4" fill="none"></path></g><g transform="translate(337.0441339905633 394.6437536058181) rotate(0 97.29496687181427 -26.832765891599706)"><path d="M164.9 -36.41 C172.62 -40.48, 182.06 -43.81, 189.62 -53.47 M170.57 -35.38 C176.37 -40.67, 182.31 -42.91, 194.25 -52.42" stroke="#1971c2" stroke-width="4" fill="none"></path></g><g transform="translate(337.0441339905633 394.6437536058181) rotate(0 97.29496687181427 -26.832765891599706)"><path d="M159.24 -56.14 C168.97 -54.47, 180.08 -52, 189.62 -53.47 M164.92 -55.11 C171.93 -54.89, 179.42 -51.73, 194.25 -52.42" stroke="#1971c2" stroke-width="4" fill="none"></path></g></g><mask></mask><g stroke-linecap="round"><g transform="translate(686.257542110221 446.82142857142844) rotate(0 0.6210363057464292 23.36414305079728)"><path d="M-1.57 -1.92 C-1.1 6, 1.19 37.49, 0.89 45.01 M2.77 3.21 C3.24 11.84, -0.12 41.63, -0.18 48.65" stroke="#1971c2" stroke-width="4" fill="none"></path></g><g transform="translate(686.257542110221 446.82142857142844) rotate(0 0.6210363057464292 23.36414305079728)"><path d="M-9.2 30.09 C-5.38 29.13, -6.52 37.34, 0.94 48.55 M-5.93 28.85 C-3.26 33.54, -2.9 38.03, -1.06 47.97" stroke="#1971c2" stroke-width="4" fill="none"></path></g><g transform="translate(686.257542110221 446.82142857142844) rotate(0 0.6210363057464292 23.36414305079728)"><path d="M6.17 31.12 C6.46 29.74, 1.78 37.72, 0.94 48.55 M9.44 29.87 C8.36 34.07, 5.01 38.31, -1.06 47.97" stroke="#1971c2" stroke-width="4" fill="none"></path></g></g><mask></mask><g stroke-linecap="round"><g transform="translate(843.757542110221 553.0714285714284) rotate(0 69.6248625755311 -11.211008199676883)"><path d="M0.84 0.27 C23.48 -3.93, 113.46 -18.81, 136.31 -22.69 M-2.14 -2.05 C21.3 -4.68, 118.41 -16.71, 141.39 -19.84" stroke="#1971c2" stroke-width="4" fill="none"></path></g><g transform="translate(843.757542110221 553.0714285714284) rotate(0 69.6248625755311 -11.211008199676883)"><path d="M115.13 -9.55 C120.9 -11.7, 128.89 -17.42, 144.23 -19.34 M115.08 -6.7 C121.6 -8.99, 133.16 -16.75, 142.18 -19.55" stroke="#1971c2" stroke-width="4" fill="none"></path></g><g transform="translate(843.757542110221 553.0714285714284) rotate(0 69.6248625755311 -11.211008199676883)"><path d="M112.51 -29.9 C119.47 -25.6, 128.3 -24.86, 144.23 -19.34 M112.46 -27.06 C119.85 -22.89, 132.25 -24.2, 142.18 -19.55" stroke="#1971c2" stroke-width="4" fill="none"></path></g></g><mask></mask><g stroke-linecap="round" transform="translate(994.0253992530779 261.375) rotate(0 147.2321428571429 59.821428571428555)"><path d="M29.91 0 M29.91 0 C95.37 2.4, 162.56 -0.49, 264.55 0 M29.91 0 C79.36 0.9, 129.43 1.09, 264.55 0 M264.55 0 C285.01 -0.89, 293.37 11.1, 294.46 29.91 M264.55 0 C283.81 -0.74, 294.4 9.38, 294.46 29.91 M294.46 29.91 C293.77 53.04, 295.61 76.58, 294.46 89.73 M294.46 29.91 C294.31 52.44, 293.91 74.87, 294.46 89.73 M294.46 89.73 C292.76 107.74, 282.81 121.04, 264.55 119.64 M294.46 89.73 C295.72 109.44, 283.32 117.86, 264.55 119.64 M264.55 119.64 C216.64 118.55, 170.55 120.78, 29.91 119.64 M264.55 119.64 C184.18 121.66, 103.36 120.9, 29.91 119.64 M29.91 119.64 C9.11 119.24, 0.24 108.85, 0 89.73 M29.91 119.64 C11.26 117.66, 0.15 108.51, 0 89.73 M0 89.73 C1.08 65.19, -0.62 40.68, 0 29.91 M0 89.73 C0.88 68.76, 0.25 49.56, 0 29.91 M0 29.91 C-1.94 10.09, 11.85 1.35, 29.91 0 M0 29.91 C0.11 12.17, 8.34 0.33, 29.91 0" stroke="#000000" stroke-width="4" fill="none"></path></g><g transform="translate(1012.2396849673642 290.6607142857142) rotate(0 130.47994995117188 35)"><text x="0" y="0" font-family="Virgil, Segoe UI Emoji" font-size="28px" fill="#000000" text-anchor="start" style="white-space: pre;" direction="ltr" dominant-baseline="text-before-edge">Grid fetched from </text><text x="0" y="35" font-family="Virgil, Segoe UI Emoji" font-size="28px" fill="#000000" text-anchor="start" style="white-space: pre;" direction="ltr" dominant-baseline="text-before-edge">database</text></g><g stroke-linecap="round"><g transform="translate(843.757542110221 311.82142857142844) rotate(0 68.379903027527 -12.536727234298098)"><path d="M1.57 0.11 C12.57 -4.48, 42.39 -24.53, 65.09 -25.17 C87.79 -25.81, 125.13 -6.83, 137.78 -3.71 M-1.02 -2.29 C10.91 -5.42, 47.44 -23.28, 70.18 -22.99 C92.93 -22.71, 123.34 -3.52, 135.45 -0.58" stroke="#1971c2" stroke-width="4" fill="none"></path></g><g transform="translate(843.757542110221 311.82142857142844) rotate(0 68.379903027527 -12.536727234298098)"><path d="M105.63 -5.02 C109.68 -3.03, 121.57 1.85, 131.58 -3.71 M104.93 -1.72 C114.74 0.11, 123.25 -2.57, 134.66 1" stroke="#1971c2" stroke-width="4" fill="none"></path></g><g transform="translate(843.757542110221 311.82142857142844) rotate(0 68.379903027527 -12.536727234298098)"><path d="M113.28 -24.06 C115.61 -16.89, 125.46 -6.93, 131.58 -3.71 M112.58 -20.76 C119.94 -12.86, 126.05 -9.55, 134.66 1" stroke="#1971c2" stroke-width="4" fill="none"></path></g></g><mask></mask><g stroke-linecap="round"><g transform="translate(981.257542110221 375.57142857142844) rotate(0 -67.41707275867475 15.416431212616601)"><path d="M-1.27 1.45 C-11.69 6.2, -38.8 26.49, -61.51 27.4 C-84.23 28.3, -124.52 10.35, -137.58 6.88 M3.24 -0.24 C-6.34 5.09, -32.38 29.32, -55.93 30.97 C-79.48 32.62, -124.2 13.37, -138.07 9.66" stroke="#1971c2" stroke-width="4" fill="none"></path></g><g transform="translate(981.257542110221 375.57142857142844) rotate(0 -67.41707275867475 15.416431212616601)"><path d="M-106.01 6.79 C-118.28 12.38, -129.06 9.37, -139.36 10.88 M-108.41 10.45 C-115.27 7.92, -121.34 7.61, -137.68 10.96" stroke="#1971c2" stroke-width="4" fill="none"></path></g><g transform="translate(981.257542110221 375.57142857142844) rotate(0 -67.41707275867475 15.416431212616601)"><path d="M-112.58 26.23 C-122.49 25.37, -131.07 15.85, -139.36 10.88 M-114.97 29.89 C-120.47 23.06, -125.05 18.32, -137.68 10.96" stroke="#1971c2" stroke-width="4" fill="none"></path></g></g><mask></mask><g stroke-linecap="round" transform="translate(54.02539925307792 526.375) rotate(0 147.2321428571429 61.696428571428555)"><path d="M30.85 0 M30.85 0 C111.97 3.15, 191.29 0.73, 263.62 0 M30.85 0 C113.01 -1.61, 195.72 -1.4, 263.62 0 M263.62 0 C284.28 1.44, 295.57 10.7, 294.46 30.85 M263.62 0 C282.64 -0.81, 294.65 10.45, 294.46 30.85 M294.46 30.85 C294.76 55.74, 293.83 78.2, 294.46 92.54 M294.46 30.85 C295.04 47.01, 295.07 65.84, 294.46 92.54 M294.46 92.54 C296.15 112.39, 285.91 123.4, 263.62 123.39 M294.46 92.54 C295.08 114.49, 286.31 125.11, 263.62 123.39 M263.62 123.39 C206.24 121.29, 147.47 121.05, 30.85 123.39 M263.62 123.39 C195.32 124.4, 125.59 124.63, 30.85 123.39 M30.85 123.39 C9.84 121.53, -0.15 111.98, 0 92.54 M30.85 123.39 C11.23 123.28, 0.16 112.97, 0 92.54 M0 92.54 C0.15 77.05, -1.29 59.61, 0 30.85 M0 92.54 C1.21 74.84, 0.06 54.73, 0 30.85 M0 30.85 C0.4 12.06, 9.09 -0.22, 30.85 0 M0 30.85 C-1.51 11.45, 9.35 1.76, 30.85 0" stroke="#000000" stroke-width="4" fill="none"></path></g><g transform="translate(72.23968496736416 555.6607142857142) rotate(0 121.09994506835938 35)"><text x="0" y="0" font-family="Virgil, Segoe UI Emoji" font-size="28px" fill="#000000" text-anchor="start" style="white-space: pre;" direction="ltr" dominant-baseline="text-before-edge">redirected to the</text><text x="0" y="35" font-family="Virgil, Segoe UI Emoji" font-size="28px" fill="#000000" text-anchor="start" style="white-space: pre;" direction="ltr" dominant-baseline="text-before-edge">created room</text></g><g stroke-linecap="round"><g transform="translate(521.257542110221 593.0714285714284) rotate(0 -81.05265432294459 3.6573883688077444)"><path d="M0.55 0.62 C-26.55 1.93, -133.43 7.76, -159.83 8.83 M-2.6 -1.51 C-30.41 -1.12, -136.56 2.64, -162.65 4.54" stroke="#1971c2" stroke-width="4" fill="none"></path></g><g transform="translate(521.257542110221 593.0714285714284) rotate(0 -81.05265432294459 3.6573883688077444)"><path d="M-134.13 -8.68 C-144.02 -1.09, -157.56 -1.21, -163.93 2.97 M-133.61 -8.27 C-142.98 -3.97, -150.35 -0.49, -162.99 3.22" stroke="#1971c2" stroke-width="4" fill="none"></path></g><g transform="translate(521.257542110221 593.0714285714284) rotate(0 -81.05265432294459 3.6573883688077444)"><path d="M-133.09 11.82 C-143.53 11.26, -157.49 3, -163.93 2.97 M-132.57 12.23 C-142.24 11.37, -149.86 9.71, -162.99 3.22" stroke="#1971c2" stroke-width="4" fill="none"></path></g></g><mask></mask><g stroke-linecap="round" transform="translate(52.77539925307792 736.375) rotate(0 147.2321428571429 54.821428571428555)"><path d="M27.41 0 M27.41 0 C116.57 -0.87, 206.88 0.53, 267.05 0 M27.41 0 C83.16 1.54, 139.37 2.2, 267.05 0 M267.05 0 C284.88 0.13, 296.33 7.22, 294.46 27.41 M267.05 0 C285.07 1.14, 294.41 7.33, 294.46 27.41 M294.46 27.41 C293.05 45.6, 294 64.23, 294.46 82.23 M294.46 27.41 C293.38 43.28, 294.23 59.02, 294.46 82.23 M294.46 82.23 C296.42 99.21, 283.37 110.4, 267.05 109.64 M294.46 82.23 C294.01 100.79, 285.32 107.34, 267.05 109.64 M267.05 109.64 C208.92 109.21, 146.67 109.84, 27.41 109.64 M267.05 109.64 C198.07 111.55, 130.18 110.95, 27.41 109.64 M27.41 109.64 C7.61 108.61, -0.83 100.77, 0 82.23 M27.41 109.64 C7.28 107.71, -0.37 98.93, 0 82.23 M0 82.23 C0.16 61.98, 0.91 41.48, 0 27.41 M0 82.23 C0.12 68.97, -0.86 54.24, 0 27.41 M0 27.41 C0.9 9.54, 10.67 0.29, 27.41 0 M0 27.41 C-2.27 10.16, 11.15 -0.19, 27.41 0" stroke="#000000" stroke-width="4" fill="none"></path></g><g transform="translate(69.73968496736416 761.9107142857142) rotate(0 127.10594177246094 35)"><text x="0" y="0" font-family="Virgil, Segoe UI Emoji" font-size="28px" fill="#000000" text-anchor="start" style="white-space: pre;" direction="ltr" dominant-baseline="text-before-edge">User join the room</text><text x="0" y="35" font-family="Virgil, Segoe UI Emoji" font-size="28px" fill="#000000" text-anchor="start" style="white-space: pre;" direction="ltr" dominant-baseline="text-before-edge">in server</text></g><g stroke-linecap="round"><g transform="translate(202.58466834128603 658.9768682557576) rotate(0 0.9898985875140625 35.565311215727604)"><path d="M-1.84 2.65 C-1.82 13.2, -2.01 55.37, -1.1 66.08 M2.36 1.63 C3.31 13.81, 3.74 58.07, 3.82 69.5" stroke="#1971c2" stroke-width="4" fill="none"></path></g><g transform="translate(202.58466834128603 658.9768682557576) rotate(0 0.9898985875140625 35.565311215727604)"><path d="M-2.93 37.53 C-3.99 51.6, -0.11 56.87, 3.25 72.1 M-5.55 40.9 C-3.14 51.42, 2.78 62.17, 3.77 69.35" stroke="#1971c2" stroke-width="4" fill="none"></path></g><g transform="translate(202.58466834128603 658.9768682557576) rotate(0 0.9898985875140625 35.565311215727604)"><path d="M17.59 37.33 C11.26 51.18, 9.87 56.5, 3.25 72.1 M14.97 40.7 C9.89 51.66, 8.31 62.5, 3.77 69.35" stroke="#1971c2" stroke-width="4" fill="none"></path></g></g><mask></mask><g stroke-linecap="round" transform="translate(534.0253992530779 716.375) rotate(0 147.2321428571429 79.19642857142856)"><path d="M32 0 M32 0 C93.9 -1.65, 155.43 -2.41, 262.46 0 M32 0 C118.27 -1.25, 204.99 -1.35, 262.46 0 M262.46 0 C284.25 -0.17, 295.14 12.35, 294.46 32 M262.46 0 C284.7 -1.49, 292.33 10.25, 294.46 32 M294.46 32 C294.57 60.05, 291.88 85.1, 294.46 126.39 M294.46 32 C295.51 66.64, 295.22 101.21, 294.46 126.39 M294.46 126.39 C292.68 146.72, 282.36 158.95, 262.46 158.39 M294.46 126.39 C294.46 149.72, 284.35 157.91, 262.46 158.39 M262.46 158.39 C190.16 160.29, 117.65 158.89, 32 158.39 M262.46 158.39 C176.8 156.06, 89.7 156.56, 32 158.39 M32 158.39 C12.62 159.4, -1.71 149.21, 0 126.39 M32 158.39 C9.94 156.74, 1.53 148.9, 0 126.39 M0 126.39 C-1.65 90.49, 0.12 56.82, 0 32 M0 126.39 C1.4 96.44, 0.63 67.88, 0 32 M0 32 C-1.1 11.62, 8.67 0.34, 32 0 M0 32 C-0.99 12.53, 10.87 -1.42, 32 0" stroke="#000000" stroke-width="4" fill="none"></path></g><g transform="translate(552.2396849673642 743.1607142857142) rotate(0 108.12195587158203 70)"><text x="0" y="0" font-family="Virgil, Segoe UI Emoji" font-size="28px" fill="#000000" text-anchor="start" style="white-space: pre;" direction="ltr" dominant-baseline="text-before-edge">user added to </text><text x="0" y="35" font-family="Virgil, Segoe UI Emoji" font-size="28px" fill="#000000" text-anchor="start" style="white-space: pre;" direction="ltr" dominant-baseline="text-before-edge">server array of</text><text x="0" y="70" font-family="Virgil, Segoe UI Emoji" font-size="28px" fill="#000000" text-anchor="start" style="white-space: pre;" direction="ltr" dominant-baseline="text-before-edge">roomData</text><text x="0" y="105" font-family="Virgil, Segoe UI Emoji" font-size="28px" fill="#000000" text-anchor="start" style="white-space: pre;" direction="ltr" dominant-baseline="text-before-edge"></text></g><g stroke-linecap="round"><g transform="translate(367.50754211022104 790.5714285714284) rotate(0 75.82348002910612 1.1197057519107148)"><path d="M1.51 -2.33 C26.03 -1.28, 122.61 4, 147.2 4.57 M-1.11 2.58 C24.32 3.02, 128.01 0.55, 152.76 0.68" stroke="#1971c2" stroke-width="4" fill="none"></path></g><g transform="translate(367.50754211022104 790.5714285714284) rotate(0 75.82348002910612 1.1197057519107148)"><path d="M121.36 9.04 C136.29 8.14, 139.78 0.99, 156.4 0.03 M123.25 11.29 C134.09 7.4, 146.75 3.79, 154.24 1.48" stroke="#1971c2" stroke-width="4" fill="none"></path></g><g transform="translate(367.50754211022104 790.5714285714284) rotate(0 75.82348002910612 1.1197057519107148)"><path d="M121.13 -11.48 C135.88 -6.15, 139.44 -7.07, 156.4 0.03 M123.02 -9.23 C134.28 -5.53, 147.03 -1.53, 154.24 1.48" stroke="#1971c2" stroke-width="4" fill="none"></path></g></g><mask></mask><g stroke-linecap="round" transform="translate(535.2753992530779 963.875) rotate(0 147.2321428571429 79.19642857142856)"><path d="M32 0 M32 0 C83.72 -1.98, 138.95 -1.47, 262.46 0 M32 0 C85.32 1.66, 139.99 2.22, 262.46 0 M262.46 0 C281.85 -0.9, 295.56 12.56, 294.46 32 M262.46 0 C284.35 -1.71, 293.67 12.71, 294.46 32 M294.46 32 C294.71 55.54, 293.53 82.3, 294.46 126.39 M294.46 32 C294.3 58.04, 293.86 83.87, 294.46 126.39 M294.46 126.39 C296.17 149.53, 283.11 159.66, 262.46 158.39 M294.46 126.39 C293.28 146.71, 284.57 159.72, 262.46 158.39 M262.46 158.39 C176.03 155.2, 86.03 155.71, 32 158.39 M262.46 158.39 C214.45 158.88, 166.53 158.95, 32 158.39 M32 158.39 C11.47 159.54, 1.44 149.17, 0 126.39 M32 158.39 C12.62 157, -2.22 149.31, 0 126.39 M0 126.39 C1.65 92.96, -1.6 60.44, 0 32 M0 126.39 C0.26 104.93, 0.21 81.85, 0 32 M0 32 C-1.97 9.28, 9.52 -0.12, 32 0 M0 32 C2.25 11.49, 12.81 -0.93, 32 0" stroke="#000000" stroke-width="4" fill="none"></path></g><g transform="translate(553.4896849673642 993.1607142857142) rotate(0 131.64193725585938 52.5)"><text x="0" y="0" font-family="Virgil, Segoe UI Emoji" font-size="28px" fill="#000000" text-anchor="start" style="white-space: pre;" direction="ltr" dominant-baseline="text-before-edge">update user with</text><text x="0" y="35" font-family="Virgil, Segoe UI Emoji" font-size="28px" fill="#000000" text-anchor="start" style="white-space: pre;" direction="ltr" dominant-baseline="text-before-edge">the current table</text><text x="0" y="70" font-family="Virgil, Segoe UI Emoji" font-size="28px" fill="#000000" text-anchor="start" style="white-space: pre;" direction="ltr" dominant-baseline="text-before-edge">layout of the room</text></g><g stroke-linecap="round"><g transform="translate(686.257542110221 878.0714285714284) rotate(0 1.028462102636695 38.71915637589984)"><path d="M-1.53 -2.36 C-1.19 10.83, 2.43 66.62, 3.59 79.8 M2.83 2.52 C2.65 14.91, 0.98 63.23, 1.26 76.04" stroke="#1971c2" stroke-width="4" fill="none"></path></g><g transform="translate(686.257542110221 878.0714285714284) rotate(0 1.028462102636695 38.71915637589984)"><path d="M-12.11 47.52 C-1.76 60.27, -2.62 67.31, -1.24 77.86 M-8.13 48.06 C-3.95 53.98, -4.15 61.57, 3.08 75.8" stroke="#1971c2" stroke-width="4" fill="none"></path></g><g transform="translate(686.257542110221 878.0714285714284) rotate(0 1.028462102636695 38.71915637589984)"><path d="M8.41 47.72 C11.47 60.18, 3.33 67.15, -1.24 77.86 M12.39 48.26 C11.72 53.87, 6.68 61.41, 3.08 75.8" stroke="#1971c2" stroke-width="4" fill="none"></path></g></g><mask></mask><g stroke-linecap="round" transform="translate(50.27539925307792 913.875) rotate(0 147.2321428571429 79.19642857142856)"><path d="M32 0 M32 0 C118.44 -2.25, 206.23 -2.38, 262.46 0 M32 0 C93.26 -0.48, 155.19 0.02, 262.46 0 M262.46 0 C284.87 -1.69, 292.91 12.29, 294.46 32 M262.46 0 C283.28 1.23, 292.56 10.79, 294.46 32 M294.46 32 C293.48 54.09, 293.5 73.59, 294.46 126.39 M294.46 32 C294.05 68.1, 293.63 103.62, 294.46 126.39 M294.46 126.39 C292.62 146.17, 283.53 159.12, 262.46 158.39 M294.46 126.39 C292.81 146.73, 281.99 159.42, 262.46 158.39 M262.46 158.39 C202.94 160.41, 146.06 159.7, 32 158.39 M262.46 158.39 C206.16 157.62, 149.64 157.55, 32 158.39 M32 158.39 C9.02 156.94, 1.7 147.24, 0 126.39 M32 158.39 C11.66 158.51, 0.98 146.45, 0 126.39 M0 126.39 C1.53 102.73, -2.24 78.45, 0 32 M0 126.39 C-0.16 105.36, -0.19 83.77, 0 32 M0 32 C-1.79 11.2, 9.84 0.49, 32 0 M0 32 C-0.76 10.97, 8.81 -0.75, 32 0" stroke="#000000" stroke-width="4" fill="none"></path></g><g transform="translate(68.48968496736416 943.1607142857142) rotate(0 123.17195892333984 52.5)"><text x="0" y="0" font-family="Virgil, Segoe UI Emoji" font-size="28px" fill="#000000" text-anchor="start" style="white-space: pre;" direction="ltr" dominant-baseline="text-before-edge">User receive local</text><text x="0" y="35" font-family="Virgil, Segoe UI Emoji" font-size="28px" fill="#000000" text-anchor="start" style="white-space: pre;" direction="ltr" dominant-baseline="text-before-edge">copy of the table</text><text x="0" y="70" font-family="Virgil, Segoe UI Emoji" font-size="28px" fill="#000000" text-anchor="start" style="white-space: pre;" direction="ltr" dominant-baseline="text-before-edge">layout/items</text></g><g stroke-linecap="round"><g transform="translate(522.5075421102206 1026.7717649809763) rotate(0 -83.63960401233248 -6.2358055822484175)"><path d="M1.34 2.08 C-26.09 0.09, -138.44 -8.21, -166.77 -10.04 M-1.38 0.73 C-28.92 -2.3, -140.33 -12.2, -168.62 -14.55" stroke="#1971c2" stroke-width="4" fill="none"></path></g><g transform="translate(522.5075421102206 1026.7717649809763) rotate(0 -83.63960401233248 -6.2358055822484175)"><path d="M-136.68 -21.3 C-144.65 -22.01, -149.47 -19.69, -167.35 -17.29 M-137.75 -22.6 C-148.19 -20.47, -157.5 -18.96, -169.3 -15.89" stroke="#1971c2" stroke-width="4" fill="none"></path></g><g transform="translate(522.5075421102206 1026.7717649809763) rotate(0 -83.63960401233248 -6.2358055822484175)"><path d="M-138.45 -0.85 C-146.3 -6.12, -150.73 -8.33, -167.35 -17.29 M-139.52 -2.15 C-149.55 -6.15, -158.32 -10.76, -169.3 -15.89" stroke="#1971c2" stroke-width="4" fill="none"></path></g></g><mask></mask><g stroke-linecap="round" transform="translate(49.02539925307792 1167.625) rotate(0 147.2321428571429 70.44642857142856)"><path d="M32 0 M32 0 C106.2 -0.68, 181.97 -1.52, 262.46 0 M32 0 C84.68 0.97, 139.15 0.29, 262.46 0 M262.46 0 C284 0.62, 292.67 11.81, 294.46 32 M262.46 0 C285.98 -0.84, 295.75 9.35, 294.46 32 M294.46 32 C294 54.38, 295.23 72.56, 294.46 108.89 M294.46 32 C294.62 50.55, 294.5 66.71, 294.46 108.89 M294.46 108.89 C293.58 130.34, 285.6 140.2, 262.46 140.89 M294.46 108.89 C295.52 129.04, 285.44 139.09, 262.46 140.89 M262.46 140.89 C214.51 140.83, 164.33 139.04, 32 140.89 M262.46 140.89 C185.88 142.4, 108.26 142.6, 32 140.89 M32 140.89 C12.24 140.21, -1.98 131.66, 0 108.89 M32 140.89 C9.62 142.01, -1.95 128.25, 0 108.89 M0 108.89 C1.86 79.32, -1.35 52.28, 0 32 M0 108.89 C0.83 83.65, -0.56 57.58, 0 32 M0 32 C0.55 11.75, 11.55 1.17, 32 0 M0 32 C1.52 11.66, 9.91 1.32, 32 0" stroke="#000000" stroke-width="4" fill="none"></path></g><g transform="translate(69.23968496736416 1186.9107142857142) rotate(0 126.36394500732422 52.5)"><text x="0" y="0" font-family="Virgil, Segoe UI Emoji" font-size="28px" fill="#000000" text-anchor="start" style="white-space: pre;" direction="ltr" dominant-baseline="text-before-edge">user interaction</text><text x="0" y="35" font-family="Virgil, Segoe UI Emoji" font-size="28px" fill="#000000" text-anchor="start" style="white-space: pre;" direction="ltr" dominant-baseline="text-before-edge">updates the data</text><text x="0" y="70" font-family="Virgil, Segoe UI Emoji" font-size="28px" fill="#000000" text-anchor="start" style="white-space: pre;" direction="ltr" dominant-baseline="text-before-edge">stored in server</text></g><g stroke-linecap="round" transform="translate(535.2753992530779 1183.875) rotate(0 147.2321428571429 52.321428571428555)"><path d="M26.16 0 M26.16 0 C88.95 -0.05, 151.33 1.21, 268.3 0 M26.16 0 C92.61 1.91, 160.76 1.71, 268.3 0 M268.3 0 C287.21 -1.76, 294.37 8.48, 294.46 26.16 M268.3 0 C284.8 -0.91, 294.83 9.58, 294.46 26.16 M294.46 26.16 C296.19 38.97, 292.88 53.02, 294.46 78.48 M294.46 26.16 C295.23 46.93, 293.52 67.6, 294.46 78.48 M294.46 78.48 C295.5 95.41, 285.9 103.53, 268.3 104.64 M294.46 78.48 C293.5 94.31, 285.77 106.32, 268.3 104.64 M268.3 104.64 C217.44 104.73, 169.73 102.3, 26.16 104.64 M268.3 104.64 C196.97 104.68, 126.31 105.09, 26.16 104.64 M26.16 104.64 C9.3 104.19, -1.37 97.09, 0 78.48 M26.16 104.64 C7.59 105.38, 0.11 94.79, 0 78.48 M0 78.48 C0.32 57.28, -0.6 37.21, 0 26.16 M0 78.48 C0.01 63.57, 0.44 48.26, 0 26.16 M0 26.16 C-1.29 7.44, 7.05 -0.62, 26.16 0 M0 26.16 C2.24 8.43, 10.68 0.76, 26.16 0" stroke="#000000" stroke-width="4" fill="none"></path></g><g transform="translate(578.4896849673642 1203.1607142857142) rotate(0 105.04194641113281 35)"><text x="0" y="0" font-family="Virgil, Segoe UI Emoji" font-size="28px" fill="#000000" text-anchor="start" style="white-space: pre;" direction="ltr" dominant-baseline="text-before-edge">server updated</text><text x="0" y="35" font-family="Virgil, Segoe UI Emoji" font-size="28px" fill="#000000" text-anchor="start" style="white-space: pre;" direction="ltr" dominant-baseline="text-before-edge">from user input</text></g><g stroke-linecap="round"><g transform="translate(357.07067627031165 1244.7026394831796) rotate(0 83.55729558641428 -14.963495069446253)"><path d="M0.48 -2.61 C28.65 -7.86, 141.08 -27.57, 169.82 -32.07 M-2.7 2.15 C24.99 -2.71, 138.17 -23.18, 167.38 -29.32" stroke="#1971c2" stroke-width="4" fill="none"></path></g><g transform="translate(357.07067627031165 1244.7026394831796) rotate(0 83.55729558641428 -14.963495069446253)"><path d="M137.92 -14.41 C147.88 -15.17, 159.86 -22.16, 165.85 -31.96 M141.43 -11.99 C149.59 -20.94, 162.15 -25.32, 168.49 -28.33" stroke="#1971c2" stroke-width="4" fill="none"></path></g><g transform="translate(357.07067627031165 1244.7026394831796) rotate(0 83.55729558641428 -14.963495069446253)"><path d="M134.03 -34.56 C145.18 -28.7, 158.44 -29.06, 165.85 -31.96 M137.53 -32.14 C147.07 -33.54, 161.1 -30.31, 168.49 -28.33" stroke="#1971c2" stroke-width="4" fill="none"></path></g></g><mask></mask><g stroke-linecap="round" transform="translate(535.2753992530779 1376.375) rotate(0 147.2321428571429 45.446428571428555)"><path d="M22.72 0 M22.72 0 C119.06 -0.66, 217.37 -0.08, 271.74 0 M22.72 0 C80.74 0.87, 138.31 1.04, 271.74 0 M271.74 0 C287.81 0.39, 294.06 7.15, 294.46 22.72 M271.74 0 C288.26 -1.73, 292.81 7.9, 294.46 22.72 M294.46 22.72 C294.03 32.42, 293.98 41.37, 294.46 68.17 M294.46 22.72 C294.72 39.89, 293.92 58.37, 294.46 68.17 M294.46 68.17 C292.5 85.26, 288.7 91.77, 271.74 90.89 M294.46 68.17 C293.13 84.38, 285.05 91.32, 271.74 90.89 M271.74 90.89 C177.41 87.82, 82.01 88.95, 22.72 90.89 M271.74 90.89 C181.78 91.27, 93.14 90.46, 22.72 90.89 M22.72 90.89 C8.53 92.47, 0.51 84.26, 0 68.17 M22.72 90.89 C9.35 90.24, 1.37 81.09, 0 68.17 M0 68.17 C-0.61 54.03, 1.14 39.42, 0 22.72 M0 68.17 C0.33 55.64, 0.95 43.05, 0 22.72 M0 22.72 C-1.57 9.28, 7.9 -0.85, 22.72 0 M0 22.72 C1.87 7.05, 8.46 0.25, 22.72 0" stroke="#000000" stroke-width="4" fill="none"></path></g><g transform="translate(563.4896849673642 1386.9107142857142) rotate(0 116.0739517211914 35)"><text x="0" y="0" font-family="Virgil, Segoe UI Emoji" font-size="28px" fill="#000000" text-anchor="start" style="white-space: pre;" direction="ltr" dominant-baseline="text-before-edge">emit the changes</text><text x="0" y="35" font-family="Virgil, Segoe UI Emoji" font-size="28px" fill="#000000" text-anchor="start" style="white-space: pre;" direction="ltr" dominant-baseline="text-before-edge">to other users</text></g><g stroke-linecap="round"><g transform="translate(682.507542110221 1294.3214285714284) rotate(0 -0.036978679187541275 38.25202907789503)"><path d="M0.67 0.01 C0.38 13.17, -2.72 65.75, -2.81 78.96 M-2.41 -2.46 C-1.68 9.88, 2.49 61.88, 2.74 74.74" stroke="#1971c2" stroke-width="4" fill="none"></path></g><g transform="translate(682.507542110221 1294.3214285714284) rotate(0 -0.036978679187541275 38.25202907789503)"><path d="M-9.02 44.91 C-3.86 56.29, -0.3 63.38, 0.87 77.41 M-8.46 48.41 C-6.18 52.65, -2.79 59.13, 2.06 75.58" stroke="#1971c2" stroke-width="4" fill="none"></path></g><g transform="translate(682.507542110221 1294.3214285714284) rotate(0 -0.036978679187541275 38.25202907789503)"><path d="M11.47 43.81 C11.26 55.57, 9.45 62.95, 0.87 77.41 M12.03 47.3 C9.2 51.81, 7.48 58.57, 2.06 75.58" stroke="#1971c2" stroke-width="4" fill="none"></path></g></g><mask></mask><g stroke-linecap="round" transform="translate(54.02539925307792 1343.875) rotate(0 147.2321428571429 79.19642857142856)"><path d="M32 0 M32 0 C116.38 -0.36, 199.62 -1.55, 262.46 0 M32 0 C98.04 0.73, 163.65 -0.46, 262.46 0 M262.46 0 C285.48 -1.01, 296.45 9.58, 294.46 32 M262.46 0 C283.72 -1.34, 296.5 10.1, 294.46 32 M294.46 32 C295.29 56.69, 292.4 85.78, 294.46 126.39 M294.46 32 C295.16 60.32, 294.97 86.59, 294.46 126.39 M294.46 126.39 C293.63 149.01, 283.79 159.59, 262.46 158.39 M294.46 126.39 C293.28 147.62, 285.73 158.04, 262.46 158.39 M262.46 158.39 C191.49 159.55, 119.64 159.93, 32 158.39 M262.46 158.39 C170.33 160.21, 77.79 160.33, 32 158.39 M32 158.39 C12.48 158.69, -1.52 149.6, 0 126.39 M32 158.39 C8.92 157.58, 0.38 147.55, 0 126.39 M0 126.39 C0.87 97.58, 2.55 71.54, 0 32 M0 126.39 C0.14 105.57, 0.33 85.33, 0 32 M0 32 C-1.67 8.95, 12.45 -0.82, 32 0 M0 32 C1.9 9.59, 11.74 -0.4, 32 0" stroke="#000000" stroke-width="4" fill="none"></path></g><g transform="translate(72.23968496736416 1373.1607142857142) rotate(0 128.91195678710938 52.5)"><text x="0" y="0" font-family="Virgil, Segoe UI Emoji" font-size="28px" fill="#000000" text-anchor="start" style="white-space: pre;" direction="ltr" dominant-baseline="text-before-edge">update local table</text><text x="0" y="35" font-family="Virgil, Segoe UI Emoji" font-size="28px" fill="#000000" text-anchor="start" style="white-space: pre;" direction="ltr" dominant-baseline="text-before-edge">to match server</text><text x="0" y="70" font-family="Virgil, Segoe UI Emoji" font-size="28px" fill="#000000" text-anchor="start" style="white-space: pre;" direction="ltr" dominant-baseline="text-before-edge">representation</text></g><g stroke-linecap="round"><g transform="translate(195.36755923417604 1081.8777983572234) rotate(0 -0.2132559386398043 41.25446875984642)"><path d="M-2.44 2.59 C-1.67 16.34, 1.27 68.02, 2.01 80.98 M1.44 1.53 C1.94 14.69, -0.61 64.99, -0.94 77.39" stroke="#1971c2" stroke-width="4" fill="none"></path></g><g transform="translate(195.36755923417604 1081.8777983572234) rotate(0 -0.2132559386398043 41.25446875984642)"><path d="M-6.39 46.96 C-4.75 53.05, -3.74 58.67, -3.96 74.16 M-10.95 50.3 C-6.89 60.22, -3.36 69.34, -0.72 78.21" stroke="#1971c2" stroke-width="4" fill="none"></path></g><g transform="translate(195.36755923417604 1081.8777983572234) rotate(0 -0.2132559386398043 41.25446875984642)"><path d="M14.12 47.76 C11.49 53.32, 8.21 58.78, -3.96 74.16 M9.56 51.09 C6.76 61.02, 3.42 69.88, -0.72 78.21" stroke="#1971c2" stroke-width="4" fill="none"></path></g></g><mask></mask><g stroke-linecap="round"><g transform="translate(530.0075421102215 1406.0119200889685) rotate(0 -89.0401629302653 15.77878898297297)"><path d="M1.2 -2.78 C-28.32 2.48, -149.27 28.56, -179.28 34.34 M-1.6 1.89 C-30.01 7.47, -143.87 24.52, -173.84 29.91" stroke="#1971c2" stroke-width="4" fill="none"></path></g><g transform="translate(530.0075421102215 1406.0119200889685) rotate(0 -89.0401629302653 15.77878898297297)"><path d="M-151.65 12.69 C-151.66 16.73, -161 19.35, -177.37 29.38 M-149.46 14.91 C-158.01 21.46, -166.61 24.03, -173.84 31.65" stroke="#1971c2" stroke-width="4" fill="none"></path></g><g transform="translate(530.0075421102215 1406.0119200889685) rotate(0 -89.0401629302653 15.77878898297297)"><path d="M-148.33 32.94 C-149.49 32.52, -159.56 30.65, -177.37 29.38 M-146.15 35.16 C-155.42 34.82, -165.15 30.5, -173.84 31.65" stroke="#1971c2" stroke-width="4" fill="none"></path></g></g><mask></mask></svg>